<?xml version="1.0" encoding="UTF-8" standalone="no"?>
<svg
   xmlns:dc="http://purl.org/dc/elements/1.1/"
   xmlns:cc="http://creativecommons.org/ns#"
   xmlns:rdf="http://www.w3.org/1999/02/22-rdf-syntax-ns#"
   xmlns:svg="http://www.w3.org/2000/svg"
   xmlns="http://www.w3.org/2000/svg"
   viewBox="0 0 58.040001 42.119999"
   height="42.119999"
   width="58.040001"
   xml:space="preserve"
   id="svg2"
   version="1.1"><metadata
     id="metadata8"><rdf:RDF><cc:Work
         rdf:about=""><dc:format>image/svg+xml</dc:format><dc:type
           rdf:resource="http://purl.org/dc/dcmitype/StillImage" /></cc:Work></rdf:RDF></metadata><defs
     id="defs6" /><g
     transform="matrix(1.3333333,0,0,-1.3333333,0,42.12)"
     id="g10"><g
       transform="scale(0.1)"
       id="g12"><path
         id="path14"
         style="fill:#0084ff;fill-opacity:1;fill-rule:nonzero;stroke:none"
         d="M 5.65625,6.46875 H 387.141 V 257.102 H 5.65625 V 6.46875" /><path
         id="path16"
         style="fill:none;stroke:#ffffff;stroke-width:4;stroke-linecap:butt;stroke-linejoin:miter;stroke-miterlimit:4;stroke-dasharray:none;stroke-opacity:1"
         d="M 5.65625,6.46875 H 387.141 V 257.102 H 5.65625 Z" /><path
         id="path18"
         style="fill:#0084ff;fill-opacity:1;fill-rule:nonzero;stroke:none"
         d="M 431.027,70.6602 387.141,6.46875 V 257.102 l 43.886,53.214 V 70.6602" /><path
         id="path20"
         style="fill:none;stroke:#ffffff;stroke-width:4;stroke-linecap:butt;stroke-linejoin:miter;stroke-miterlimit:4;stroke-dasharray:none;stroke-opacity:1"
         d="M 431.027,70.6602 387.141,6.46875 V 257.102 l 43.886,53.214 z" /><path
         id="path22"
         style="fill:#0084ff;fill-opacity:1;fill-rule:nonzero;stroke:none"
         d="M 71.4883,310.316 H 431.027 L 387.141,257.102 H 5.65625 l 65.83205,53.214" /><path
         id="path24"
         style="fill:none;stroke:#ffffff;stroke-width:4;stroke-linecap:butt;stroke-linejoin:miter;stroke-miterlimit:4;stroke-dasharray:none;stroke-opacity:1"
         d="M 71.4883,310.316 H 431.027 L 387.141,257.102 H 5.65625 Z" /><path
         id="path26"
         style="fill:#ffffff;fill-opacity:1;fill-rule:nonzero;stroke:none"
         d="m 91.3984,191.223 -63.8867,-0.047 v 10.156 l 63.8867,0.039 0.0235,15.856 36.9961,-20.942 -36.9961,-20.941 -0.0235,15.879" /><path
         id="path28"
         style="fill:#ffffff;fill-opacity:1;fill-rule:nonzero;stroke:none"
         d="m 91.3984,127.891 -63.8867,-0.047 v 10.152 l 63.8867,0.043 0.0235,15.852 36.9961,-20.942 -36.9961,-20.941 -0.0235,15.883" /><path
         id="path30"
         style="fill:#ffffff;fill-opacity:1;fill-rule:nonzero;stroke:none"
         d="M 91.3984,64.5547 27.5117,64.5078 v 10.1563 l 63.8867,0.039 0.0235,15.8555 L 128.418,69.6133 91.4219,48.6719 91.3984,64.5547" /><path
         id="path32"
         style="fill:#ffffff;fill-opacity:1;fill-rule:nonzero;stroke:none"
         d="m 304.504,136.215 63.879,0.051 v -10.157 l -63.879,-0.039 -0.027,-15.855 -36.997,20.941 36.997,20.946 0.027,-15.887" /><path
         id="path34"
         style="fill:#ffffff;fill-opacity:1;fill-rule:nonzero;stroke:none"
         d="m 253.184,167.797 c 0,-8.594 -22.989,-15.559 -51.352,-15.559 -28.359,0 -51.348,6.965 -51.348,15.559 v -64.356 c 0,-8.5933 22.989,-15.5582 51.348,-15.5582 28.363,0 51.352,6.9649 51.352,15.5582 v 64.356" /><path
         id="path36"
         style="fill:#0084ff;fill-opacity:1;fill-rule:nonzero;stroke:none"
         d="m 201.762,152.238 c 28.359,0 51.355,6.965 51.355,15.559 0,8.594 -22.996,15.562 -51.355,15.562 -28.364,0 -51.352,-6.968 -51.352,-15.562 0,-8.594 22.988,-15.559 51.352,-15.559" /><path
         id="path38"
         style="fill:none;stroke:#ffffff;stroke-width:8;stroke-linecap:butt;stroke-linejoin:miter;stroke-miterlimit:4;stroke-dasharray:none;stroke-opacity:1"
         d="m 201.762,152.238 c 28.359,0 51.355,6.965 51.355,15.559 0,8.594 -22.996,15.562 -51.355,15.562 -28.364,0 -51.352,-6.968 -51.352,-15.562 0,-8.594 22.988,-15.559 51.352,-15.559 z" /><path
         id="path40"
         style="fill:#ffffff;fill-opacity:1;fill-rule:nonzero;stroke:none"
         d="m 201.832,80.2383 c 28.363,0 51.352,6.9687 51.352,15.5625 0,8.5942 -22.989,15.5622 -51.352,15.5622 -28.359,0 -51.348,-6.968 -51.348,-15.5622 0,-8.5938 22.989,-15.5625 51.348,-15.5625" /><path
         id="path42"
         style="fill:none;stroke:#ffffff;stroke-width:8;stroke-linecap:butt;stroke-linejoin:miter;stroke-miterlimit:4;stroke-dasharray:none;stroke-opacity:1"
         d="m 201.832,80.2383 c 28.363,0 51.352,6.9687 51.352,15.5625 0,8.5942 -22.989,15.5622 -51.352,15.5622 -28.359,0 -51.348,-6.968 -51.348,-15.5622 0,-8.5938 22.989,-15.5625 51.348,-15.5625 z" /></g></g></svg>