<?xml version="1.0" standalone="no"?>
<!DOCTYPE svg PUBLIC "-//W3C//DTD SVG 20010904//EN"
 "http://www.w3.org/TR/2001/REC-SVG-20010904/DTD/svg10.dtd">
<svg version="1.0" xmlns="http://www.w3.org/2000/svg"
 width="675.000000pt" height="675.000000pt" viewBox="0 0 675.000000 675.000000"
 preserveAspectRatio="xMidYMid meet">
<g transform="translate(0.000000,675.000000) scale(0.100000,-0.100000)"
fill="#0084ff" stroke="none">
<path d="M3195 6740 c9 -14 -7 -19 -100 -30 -82 -9 -173 -29 -235 -51 -78 -27
-116 -42 -142 -55 -14 -8 -33 -14 -41 -14 -8 0 -20 -7 -27 -15 -7 -8 -20 -15
-30 -15 -10 0 -23 -7 -30 -15 -7 -8 -21 -15 -31 -15 -11 0 -19 -5 -19 -10 0
-6 -10 -15 -22 -20 -29 -13 -54 -28 -99 -62 -20 -16 -39 -28 -42 -28 -14 0
-178 -149 -236 -214 -79 -90 -111 -128 -111 -133 0 -3 -12 -22 -27 -42 -31
-40 -48 -67 -63 -96 -6 -11 -19 -33 -30 -50 -11 -16 -22 -37 -26 -45 -3 -8
-12 -30 -20 -47 -40 -93 -44 -102 -84 -213 -7 -19 -16 -53 -20 -75 -4 -22 -12
-60 -18 -85 -26 -104 -42 -322 -42 -570 0 -140 -5 -295 -10 -345 -6 -49 -15
-155 -20 -235 -5 -80 -14 -161 -20 -180 -5 -19 -10 -60 -10 -90 0 -31 -7 -82
-15 -113 -8 -32 -15 -75 -15 -95 0 -20 -6 -68 -14 -107 -24 -116 -37 -178 -42
-210 -8 -45 -34 -164 -49 -220 -18 -69 -35 -134 -45 -175 -4 -19 -13 -50 -19
-67 -29 -85 -33 -101 -42 -138 -6 -21 -14 -44 -18 -50 -5 -5 -11 -21 -14 -35
-8 -41 -42 -129 -73 -193 -8 -16 -14 -34 -14 -40 0 -6 -13 -39 -29 -72 -66
-137 -104 -212 -122 -240 -10 -16 -23 -39 -29 -50 -6 -11 -19 -33 -30 -50 -11
-16 -24 -40 -30 -53 -5 -12 -14 -22 -20 -22 -5 0 -10 -5 -10 -11 0 -26 -137
-181 -257 -290 -35 -32 -105 -77 -158 -102 -22 -10 -49 -24 -60 -30 -11 -6
-36 -13 -55 -17 l-35 -5 -3 -283 -2 -282 2925 0 2925 0 -2 282 -3 283 -35 5
c-19 4 -44 11 -55 17 -11 6 -38 20 -60 30 -53 25 -123 70 -158 102 -120 109
-257 264 -257 290 0 6 -5 11 -10 11 -6 0 -15 10 -20 22 -6 13 -19 37 -30 53
-11 17 -24 39 -30 50 -6 11 -19 34 -29 50 -18 28 -56 103 -122 240 -16 33 -29
66 -29 72 0 6 -6 24 -14 40 -31 64 -65 152 -73 193 -3 14 -10 31 -16 38 -5 7
-13 29 -17 50 -5 20 -13 53 -20 72 -27 79 -32 97 -40 130 -10 39 -26 101 -45
175 -27 104 -45 184 -45 207 0 12 -7 41 -15 63 -8 22 -14 58 -15 80 0 22 -7
62 -15 89 -8 27 -15 68 -15 92 0 24 -7 69 -15 101 -8 31 -15 82 -15 113 0 30
-5 71 -10 90 -6 19 -15 100 -20 180 -6 80 -15 183 -20 230 -5 47 -9 202 -9
345 -1 252 -17 471 -43 575 -6 25 -14 63 -18 85 -4 22 -13 56 -20 75 -40 111
-44 120 -84 213 -8 17 -17 39 -20 47 -4 8 -15 29 -26 45 -11 17 -24 39 -30 50
-15 29 -32 56 -62 96 -16 20 -28 41 -28 47 0 6 -4 12 -8 14 -5 2 -40 39 -78
83 -74 86 -243 245 -261 245 -3 0 -22 13 -42 29 -20 16 -54 39 -76 51 -22 12
-53 30 -70 41 -16 10 -37 21 -45 25 -8 3 -22 10 -30 15 -8 5 -22 12 -30 15 -8
3 -28 11 -45 18 -31 14 -86 35 -145 55 -62 22 -153 42 -235 51 -93 11 -109 16
-100 30 4 7 -54 10 -170 10 -116 0 -174 -3 -170 -10z"/>
<path d="M2476 762 c-12 -19 19 -142 50 -204 8 -14 14 -33 14 -41 0 -8 7 -20
15 -27 8 -7 15 -19 15 -27 0 -8 14 -32 30 -53 17 -21 30 -41 30 -45 0 -15 186
-192 230 -221 50 -31 156 -83 210 -103 132 -49 458 -49 590 0 142 52 236 112
345 223 90 91 107 111 125 154 5 12 14 22 20 22 5 0 10 8 10 19 0 10 7 24 15
31 8 7 15 18 15 25 0 8 6 26 14 42 32 64 61 186 50 205 -7 11 -1771 11 -1778
0z"/>
</g>
</svg>
