<?xml version="1.0" standalone="no"?>
<!DOCTYPE svg PUBLIC "-//W3C//DTD SVG 20010904//EN"
 "http://www.w3.org/TR/2001/REC-SVG-20010904/DTD/svg10.dtd">
<svg version="1.0" xmlns="http://www.w3.org/2000/svg"
 width="450.000000pt" height="450.000000pt" viewBox="0 0 450.000000 450.000000"
 preserveAspectRatio="xMidYMid meet">
<metadata>
Created by potrace 1.10, written by Peter Selinger 2001-2011
</metadata>
<g transform="translate(0.000000,450.000000) scale(0.100000,-0.100000)"
fill="#ff0000" stroke="none">
<path d="M2060 4090 c-88 -10 -194 -28 -213 -36 -8 -3 -42 -11 -74 -19 -59
-13 -183 -54 -238 -80 -17 -7 -50 -23 -75 -34 -45 -21 -122 -62 -150 -81 -8
-5 -47 -31 -87 -58 -252 -166 -485 -448 -607 -732 -8 -19 -24 -56 -35 -82 -12
-26 -21 -52 -21 -58 0 -10 -14 -62 -41 -146 -17 -56 -39 -267 -39 -379 0 -98
24 -337 36 -356 2 -4 15 -50 29 -103 14 -53 29 -104 34 -114 5 -9 20 -44 32
-77 13 -33 26 -64 30 -70 3 -5 23 -41 44 -80 162 -304 460 -584 775 -731 97
-45 113 -52 205 -82 108 -36 148 -46 283 -72 148 -29 455 -28 608 0 159 30
311 76 432 131 35 16 66 29 69 29 9 0 215 128 258 160 22 16 51 37 65 47 46
32 266 257 300 308 19 28 38 55 43 60 18 22 75 114 96 156 12 24 26 51 31 59
23 41 65 143 87 215 23 75 29 96 53 201 33 147 36 453 5 609 -7 38 -16 87 -20
109 -3 21 -10 46 -14 55 -5 9 -17 43 -26 76 -31 103 -124 299 -171 362 -13 17
-24 34 -24 37 0 17 -134 179 -213 259 -134 135 -329 276 -467 339 -14 6 -52
23 -85 39 -33 15 -85 34 -115 44 -30 9 -64 21 -75 26 -11 5 -40 13 -65 18 -62
12 -146 30 -200 42 -58 13 -376 20 -460 9z m345 -547 c50 -26 86 -65 116 -123
19 -38 23 -59 22 -131 -1 -48 -6 -104 -12 -125 -5 -22 -15 -75 -21 -119 -18
-123 -38 -252 -55 -345 -8 -47 -21 -128 -29 -180 -8 -53 -17 -102 -20 -110 -6
-18 -23 -141 -36 -258 -4 -46 -14 -90 -20 -98 -18 -21 -163 -20 -181 2 -7 9
-16 61 -20 130 -5 63 -11 118 -14 123 -5 9 -20 109 -46 301 -5 41 -12 82 -15
90 -6 15 -28 148 -44 275 -5 39 -14 90 -19 115 -19 83 -31 237 -22 283 16 86
97 166 196 191 48 12 180 -1 220 -21z m-50 -1659 c170 -80 207 -303 76 -455
-76 -89 -192 -114 -290 -64 -52 26 -106 85 -116 128 -4 15 -11 30 -16 33 -5 3
-9 40 -9 82 0 228 173 363 355 276z"/>
</g>
</svg>
