<?xml version="1.0" standalone="no"?>
<!DOCTYPE svg PUBLIC "-//W3C//DTD SVG 20010904//EN"
 "http://www.w3.org/TR/2001/REC-SVG-20010904/DTD/svg10.dtd">
<svg version="1.0" xmlns="http://www.w3.org/2000/svg"
 width="480.000000pt" height="480.000000pt" viewBox="0 0 480.000000 480.000000"
 preserveAspectRatio="xMidYMid meet">
<metadata>
Created by potrace 1.10, written by Peter Selinger 2001-2011
</metadata>
<g transform="translate(0.000000,480.000000) scale(0.100000,-0.100000)"
fill="#0084ff" stroke="none">
<path d="M2248 4779 c-10 -11 -31 -19 -48 -19 -17 0 -38 -4 -48 -10 -9 -5 -42
-19 -72 -31 -96 -36 -236 -146 -292 -229 -50 -73 -88 -140 -88 -154 0 -8 -6
-19 -14 -25 -8 -6 -16 -26 -19 -44 -3 -18 -10 -50 -16 -72 -17 -63 -15 -254 4
-332 9 -37 38 -110 63 -162 37 -74 64 -112 127 -176 81 -83 202 -166 262 -179
60 -13 64 -27 61 -197 l-3 -154 -490 -5 -490 -5 -3 -209 c-2 -148 1 -213 9
-223 10 -11 89 -14 485 -13 261 1 478 -1 484 -5 13 -8 14 -2054 1 -2074 -8
-12 -16 -13 -49 -3 -22 7 -53 12 -69 12 -57 0 -282 63 -378 105 -16 8 -61 26
-99 41 -88 36 -276 150 -391 239 -100 77 -328 302 -322 319 2 7 57 12 155 14
126 2 152 5 152 17 0 8 -6 15 -13 15 -8 0 -41 21 -74 48 -70 55 -496 379 -648
492 -26 19 -91 69 -145 110 -53 41 -117 89 -141 107 -24 18 -63 47 -86 64 -24
18 -46 29 -50 26 -11 -12 20 -172 67 -342 41 -150 46 -165 58 -177 7 -7 12
-18 12 -25 0 -21 95 -223 140 -298 16 -27 34 -59 40 -70 32 -62 141 -215 213
-299 209 -244 487 -467 724 -582 29 -14 53 -30 53 -35 0 -5 10 -9 23 -9 13 0
27 -4 33 -9 12 -13 245 -104 314 -124 102 -30 303 -73 390 -84 84 -10 556 -10
640 0 154 20 396 79 515 127 39 15 95 38 125 50 30 12 59 26 64 31 6 5 20 9
33 9 13 0 23 4 23 10 0 5 24 21 53 35 233 112 520 341 725 581 72 85 181 239
212 299 6 11 24 43 40 70 48 81 140 277 140 299 0 7 6 19 14 25 8 6 16 26 19
44 3 18 12 52 20 77 23 68 65 239 72 293 4 31 11 47 21 47 9 0 14 11 14 35 0
19 -3 35 -6 35 -14 0 -57 -30 -193 -133 -80 -61 -162 -122 -181 -137 -19 -15
-52 -40 -73 -56 -21 -16 -62 -47 -91 -69 -144 -107 -545 -411 -576 -437 -19
-15 -40 -28 -47 -28 -7 0 -13 -7 -13 -15 0 -13 24 -15 154 -15 91 0 157 -4
161 -10 3 -5 -58 -74 -137 -153 -134 -134 -278 -249 -390 -312 -101 -57 -239
-125 -253 -125 -9 0 -26 -6 -38 -14 -50 -32 -232 -82 -421 -115 -46 -8 -62 -8
-68 2 -12 19 -10 2065 2 2072 6 4 221 6 478 6 285 -1 473 3 482 9 12 8 16 46
18 220 2 115 2 211 0 212 -2 2 -226 5 -498 8 l-495 5 -3 157 -2 156 26 21 c15
12 33 21 41 21 29 0 188 105 249 164 72 71 173 235 187 306 3 14 10 43 16 65
27 104 5 363 -38 435 -5 8 -19 35 -31 60 -73 145 -225 288 -361 340 -30 11
-62 25 -71 30 -10 6 -31 10 -48 10 -17 0 -39 9 -50 20 -18 18 -33 20 -142 19
-108 -1 -125 -3 -140 -20z m279 -470 c98 -48 158 -132 169 -238 10 -87 -9
-148 -65 -217 -67 -84 -136 -118 -239 -118 -98 1 -160 27 -223 94 -58 62 -80
107 -86 180 -12 125 49 236 163 297 52 28 69 32 138 32 69 1 88 -3 143 -30z"/>
</g>
</svg>
