<?xml version="1.0" standalone="no"?>
<!DOCTYPE svg PUBLIC "-//W3C//DTD SVG 20010904//EN"
 "http://www.w3.org/TR/2001/REC-SVG-20010904/DTD/svg10.dtd">
<svg version="1.0" xmlns="http://www.w3.org/2000/svg"
 width="48.000000pt" height="48.000000pt" viewBox="0 0 48.000000 48.000000"
 preserveAspectRatio="xMidYMid meet">
<metadata>
Created by potrace 1.10, written by Peter Selinger 2001-2011
</metadata>
<g transform="translate(0.000000,48.000000) scale(0.100000,-0.100000)"
fill="#0084ff" stroke="none">
<path d="M0 240 l0 -240 243 1 c133 1 224 4 202 8 -22 4 -124 6 -227 5 -152
-2 -189 1 -199 12 -9 11 -11 72 -6 234 3 129 1 220 -4 220 -5 0 -9 -103 -9
-240z"/>
<path d="M58 435 c-3 -3 -4 -90 -2 -193 3 -181 4 -187 24 -187 20 0 21 6 26
193 l5 192 -24 0 c-13 0 -26 -2 -29 -5z"/>
<path d="M236 381 c-4 -5 -4 -81 -2 -168 4 -154 5 -158 26 -158 22 0 22 3 24
165 1 162 1 165 -21 168 -11 2 -24 -1 -27 -7z"/>
<path d="M325 173 c3 -116 3 -118 27 -118 21 0 23 5 24 45 0 25 2 77 4 115 l4
70 -32 3 -31 3 4 -118z"/>
<path d="M150 256 c-3 -2 -5 -49 -4 -103 1 -95 2 -98 24 -98 23 0 23 3 24 100
0 93 -1 100 -20 103 -11 2 -22 1 -24 -2z"/>
<path d="M417 163 c-6 -12 -2 -102 5 -108 3 -3 17 -3 32 1 24 6 26 10 26 60 0
53 0 54 -29 54 -17 0 -32 -3 -34 -7z"/>
</g>
</svg>
