<?xml version="1.0" encoding="UTF-8" standalone="no"?>
<svg
   xmlns:dc="http://purl.org/dc/elements/1.1/"
   xmlns:cc="http://creativecommons.org/ns#"
   xmlns:rdf="http://www.w3.org/1999/02/22-rdf-syntax-ns#"
   xmlns:svg="http://www.w3.org/2000/svg"
   xmlns="http://www.w3.org/2000/svg"
   viewBox="0 0 109.76 63.906666"
   height="63.906666"
   width="109.76"
   xml:space="preserve"
   id="svg2"
   version="1.1"><metadata
     id="metadata8"><rdf:RDF><cc:Work
         rdf:about=""><dc:format>image/svg+xml</dc:format><dc:type
           rdf:resource="http://purl.org/dc/dcmitype/StillImage" /></cc:Work></rdf:RDF></metadata><defs
     id="defs6" /><g
     transform="matrix(1.3333333,0,0,-1.3333333,0,63.906667)"
     id="g10"><g
       transform="scale(0.1)"
       id="g12"><path
         id="path14"
         style="fill:#ffffff;fill-opacity:1;fill-rule:nonzero;stroke:none"
         d="m 285.785,422.332 c -144,28.75 -220.0037,-45 -207.9998,-108.75 L 78.75,310.109 C -33.457,291.012 -4.05078,158.582 49.7813,158.582 l 5.3007,0.172 C 41.5234,96.5273 172.656,33.1953 245.785,64.832 l 4.695,5.1524 C 276.563,14.0195 369.184,4.67188 460.785,2.33203 540.172,0.308594 586.496,6.58984 620.535,41.3828 l 5.25,-1.5508 c 127.07,-10.2109 184.942,77.555 157.16,140.578 l 6.84,1.922 c 43.309,11.457 48.309,111.457 -26,126.25 l 1.418,3.875 c 32.277,65.055 -43.82,126.402 -149.418,114.875 l -7.32,3.82 c -75.574,68.442 -293.141,57.286 -318.336,-10.406 l -4.344,1.586" /><path
         id="path16"
         style="fill:none;stroke:#000000;stroke-width:4;stroke-linecap:butt;stroke-linejoin:miter;stroke-miterlimit:4;stroke-dasharray:none;stroke-opacity:1"
         d="m 285.785,422.332 c -144,28.75 -220.0037,-45 -207.9998,-108.75 L 78.75,310.109 C -33.457,291.012 -4.05078,158.582 49.7813,158.582 l 5.3007,0.172 C 41.5234,96.5273 172.656,33.1953 245.785,64.832 l 4.695,5.1524 C 276.563,14.0195 369.184,4.67188 460.785,2.33203 540.172,0.308594 586.496,6.58984 620.535,41.3828 l 5.25,-1.5508 c 127.07,-10.2109 184.942,77.555 157.16,140.578 l 6.84,1.922 c 43.309,11.457 48.309,111.457 -26,126.25 l 1.418,3.875 c 32.277,65.055 -43.82,126.402 -149.418,114.875 l -7.32,3.82 c -75.574,68.442 -293.141,57.286 -318.336,-10.406 z" /></g></g></svg>