<?xml version="1.0" standalone="no"?>
<!DOCTYPE svg PUBLIC "-//W3C//DTD SVG 20010904//EN"
 "http://www.w3.org/TR/2001/REC-SVG-20010904/DTD/svg10.dtd">
<svg version="1.0" xmlns="http://www.w3.org/2000/svg"
 width="280.000000pt" height="280.000000pt" viewBox="0 0 280.000000 280.000000"
 preserveAspectRatio="xMidYMid meet">
<metadata>
Created by potrace 1.15, written by Peter Selinger 2001-2017
</metadata>
<g transform="translate(0.000000,280.000000) scale(0.100000,-0.100000)"
stroke="none">
<path fill="#0084ff" d="M1170 2271 c-81 -12 -137 -29 -205 -63 -79 -40 -175 -139 -211 -216
-24 -53 -33 -63 -78 -84 -76 -35 -176 -139 -220 -229 -36 -77 -66 -181 -66
-235 0 -29 -3 -32 -42 -38 -67 -11 -163 -64 -214 -118 -90 -97 -128 -237 -106
-390 27 -187 132 -308 307 -354 79 -21 1767 -20 1849 1 108 28 121 39 372 296
131 134 167 178 195 234 32 66 34 75 34 180 0 96 -4 120 -29 188 -48 132 -162
231 -299 258 l-54 11 -5 92 c-9 167 -74 260 -234 337 -75 35 -102 43 -166 47
-90 5 -186 -20 -257 -67 l-45 -30 -51 48 c-89 84 -193 125 -342 134 -43 3
-103 2 -133 -2z"/>
<path fill="#dddddd" d="M1170 2271 c-81 -12 -137 -29 -205 -63 -79 -40 -175 -139 -211 -216
-24 -53 -33 -63 -78 -84 -76 -35 -176 -139 -220 -229 -36 -77 -66 -181 -66
-235 0 -29 -3 -32 -42 -38 -67 -11 -163 -64 -214 -118 -90 -97 -128 -237 -106
-390 27 -187 132 -308 307 -354 79 -21 1767 -20 1849 1 108 28 121 39 372 296
131 134 167 178 195 234 32 66 34 75 34 180 0 96 -4 120 -29 188 -48 132 -162
231 -299 258 l-54 11 -5 92 c-9 167 -74 260 -234 337 -75 35 -102 43 -166 47
-90 5 -186 -20 -257 -67 l-45 -30 -51 48 c-89 84 -193 125 -342 134 -43 3
-103 2 -133 -2z m238 -86 c34 -8 81 -24 103 -35 50 -26 116 -85 134 -120 13
-26 12 -29 -58 -98 -40 -39 -97 -87 -127 -106 l-55 -35 -51 49 c-109 103 -285
154 -459 132 -38 -5 -71 -9 -72 -7 -2 1 11 23 29 50 55 83 181 159 298 178 59
10 200 6 258 -8z m716 -104 c136 -63 199 -152 200 -280 0 -111 -11 -133 -123
-245 l-98 -98 -6 75 c-9 126 -60 213 -162 279 -85 55 -177 81 -271 76 l-76 -3
87 83 c125 119 203 155 317 148 47 -3 87 -14 132 -35z m-1006 -196 c113 -27
204 -90 244 -169 11 -23 22 -43 24 -45 2 -2 22 15 45 39 22 23 71 56 107 73
59 28 77 32 147 31 101 -1 176 -28 244 -90 97 -87 120 -195 75 -350 -5 -20 -1
-22 73 -26 139 -8 246 -76 303 -192 103 -209 33 -432 -164 -522 l-54 -24 -918
2 -919 3 -51 27 c-60 32 -117 92 -147 156 -19 41 -22 65 -22 177 0 122 2 133
28 187 49 99 150 166 265 176 l62 5 0 52 c0 102 54 259 118 343 51 68 163 131
267 152 67 13 206 11 273 -5z m1394 -277 c77 -36 130 -87 162 -157 55 -122 58
-247 9 -347 -28 -57 -98 -131 -151 -158 l-32 -17 0 49 c0 106 -51 232 -127
313 -45 48 -166 119 -204 119 -56 0 -51 12 53 121 l103 108 66 -3 c44 -2 84
-11 121 -28z"/>
</g>
</svg>
