<?xml version="1.0" encoding="UTF-8" standalone="no"?>
<svg
   xmlns:dc="http://purl.org/dc/elements/1.1/"
   xmlns:cc="http://creativecommons.org/ns#"
   xmlns:rdf="http://www.w3.org/1999/02/22-rdf-syntax-ns#"
   xmlns:svg="http://www.w3.org/2000/svg"
   xmlns="http://www.w3.org/2000/svg"
   viewBox="0 0 41.293331 37.546665"
   height="37.546665"
   width="41.293331"
   xml:space="preserve"
   id="svg2"
   version="1.1"><metadata
     id="metadata8"><rdf:RDF><cc:Work
         rdf:about=""><dc:format>image/svg+xml</dc:format><dc:type
           rdf:resource="http://purl.org/dc/dcmitype/StillImage" /></cc:Work></rdf:RDF></metadata><defs
     id="defs6" /><g
     transform="matrix(1.3333333,0,0,-1.3333333,0,37.546667)"
     id="g10"><g
       transform="scale(0.1)"
       id="g12"><path
         id="path14"
         style="fill:#0084ff;fill-opacity:1;fill-rule:nonzero;stroke:none"
         d="M 1.60156,1.60156 78.2227,36.4023 H 308.086 L 231.457,1.60156 H 1.60156 v 0" /><path
         id="path16"
         style="fill:none;stroke:#ffffff;stroke-width:3.20000005;stroke-linecap:butt;stroke-linejoin:miter;stroke-miterlimit:1;stroke-dasharray:none;stroke-opacity:1"
         d="M 1.60156,1.60156 78.2227,36.4023 H 308.086 L 231.457,1.60156 H 1.60156 Z" /><path
         id="path18"
         style="fill:#0084ff;fill-opacity:1;fill-rule:nonzero;stroke:none"
         d="M 1.60156,245.191 78.2227,279.977 V 36.4023 L 1.60156,1.60156 V 245.191" /><path
         id="path20"
         style="fill:none;stroke:#ffffff;stroke-width:3.20000005;stroke-linecap:butt;stroke-linejoin:miter;stroke-miterlimit:1;stroke-dasharray:none;stroke-opacity:1"
         d="M 1.60156,245.191 78.2227,279.977 V 36.4023 L 1.60156,1.60156 Z" /><path
         id="path22"
         style="fill:#0084ff;fill-opacity:1;fill-rule:nonzero;stroke:none"
         d="m 78.2227,36.4023 h 229.863 v 243.574 H 78.2227 Z" /><path
         id="path24"
         style="fill:none;stroke:#ffffff;stroke-width:3.20000005;stroke-linecap:butt;stroke-linejoin:miter;stroke-miterlimit:1;stroke-dasharray:none;stroke-opacity:1"
         d="m 78.2227,36.4023 h 229.863 v 243.574 H 78.2227 Z" /><path
         id="path26"
         style="fill:#0084ff;fill-opacity:1;fill-rule:nonzero;stroke:none"
         d="M 1.60156,245.191 78.2227,279.977 H 308.086 L 231.457,245.191 H 1.60156 v 0" /><path
         id="path28"
         style="fill:none;stroke:#ffffff;stroke-width:3.20000005;stroke-linecap:butt;stroke-linejoin:miter;stroke-miterlimit:1;stroke-dasharray:none;stroke-opacity:1"
         d="M 1.60156,245.191 78.2227,279.977 H 308.086 L 231.457,245.191 H 1.60156 Z" /><path
         id="path30"
         style="fill:#0084ff;fill-opacity:1;fill-rule:nonzero;stroke:none"
         d="m 43.3984,210.375 c 7.8321,0 13.9258,-13.047 13.9258,-31.312 0,-17.399 -6.0937,-31.313 -13.9258,-31.313 -8.7109,0 -13.9453,13.914 -13.9453,31.313 0,18.265 5.2344,31.312 13.9453,31.312" /><path
         id="path32"
         style="fill:none;stroke:#ffffff;stroke-width:3.20000005;stroke-linecap:butt;stroke-linejoin:miter;stroke-miterlimit:1;stroke-dasharray:none;stroke-opacity:1"
         d="m 43.3984,210.375 c 7.8321,0 13.9258,-13.047 13.9258,-31.312 0,-17.399 -6.0937,-31.313 -13.9258,-31.313 -8.7109,0 -13.9453,13.914 -13.9453,31.313 0,18.265 5.2344,31.312 13.9453,31.312" /><path
         id="path34"
         style="fill:#0084ff;fill-opacity:1;fill-rule:nonzero;stroke:none"
         d="m 43.3984,147.75 h 188.059 v 62.625 H 43.3984 Z" /><path
         id="path36"
         style="fill:none;stroke:#ffffff;stroke-width:3.20000005;stroke-linecap:butt;stroke-linejoin:miter;stroke-miterlimit:4;stroke-dasharray:none;stroke-opacity:1"
         d="M 43.3984,210.375 H 231.457 V 147.75 H 43.3984" /><path
         id="path38"
         style="fill:#0084ff;fill-opacity:1;fill-rule:nonzero;stroke:none"
         d="m 43.3984,119.918 c 7.8321,0 13.9258,-13.047 13.9258,-31.3242 0,-17.4063 -6.0937,-31.3125 -13.9258,-31.3125 -8.7109,0 -13.9453,13.9062 -13.9453,31.3125 0,18.2772 5.2344,31.3242 13.9453,31.3242" /><path
         id="path40"
         style="fill:none;stroke:#ffffff;stroke-width:3.20000005;stroke-linecap:butt;stroke-linejoin:miter;stroke-miterlimit:1;stroke-dasharray:none;stroke-opacity:1"
         d="m 43.3984,119.918 c 7.8321,0 13.9258,-13.047 13.9258,-31.3242 0,-17.4063 -6.0937,-31.3125 -13.9258,-31.3125 -8.7109,0 -13.9453,13.9062 -13.9453,31.3125 0,18.2772 5.2344,31.3242 13.9453,31.3242" /><path
         id="path42"
         style="fill:#0084ff;fill-opacity:1;fill-rule:nonzero;stroke:none"
         d="m 43.3984,57.2813 h 188.059 V 119.918 H 43.3984 Z" /><path
         id="path44"
         style="fill:none;stroke:#ffffff;stroke-width:3.20000005;stroke-linecap:butt;stroke-linejoin:miter;stroke-miterlimit:4;stroke-dasharray:none;stroke-opacity:1"
         d="M 43.3984,119.918 H 231.457 V 57.2813 H 43.3984" /><path
         id="path46"
         style="fill:#0084ff;fill-opacity:1;fill-rule:nonzero;stroke:none"
         d="M 43.3984,210.375 H 238.438" /><path
         id="path48"
         style="fill:none;stroke:#ffffff;stroke-width:3.20000005;stroke-linecap:butt;stroke-linejoin:miter;stroke-miterlimit:1;stroke-dasharray:none;stroke-opacity:1"
         d="M 43.3984,210.375 H 238.438" /><path
         id="path50"
         style="fill:#0084ff;fill-opacity:1;fill-rule:nonzero;stroke:none"
         d="M 43.3984,147.75 H 238.438" /><path
         id="path52"
         style="fill:none;stroke:#ffffff;stroke-width:3.20000005;stroke-linecap:butt;stroke-linejoin:miter;stroke-miterlimit:1;stroke-dasharray:none;stroke-opacity:1"
         d="M 43.3984,147.75 H 238.438" /><path
         id="path54"
         style="fill:#0084ff;fill-opacity:1;fill-rule:nonzero;stroke:none"
         d="M 43.3984,119.918 H 238.438" /><path
         id="path56"
         style="fill:none;stroke:#ffffff;stroke-width:3.20000005;stroke-linecap:butt;stroke-linejoin:miter;stroke-miterlimit:1;stroke-dasharray:none;stroke-opacity:1"
         d="M 43.3984,119.918 H 238.438" /><path
         id="path58"
         style="fill:#0084ff;fill-opacity:1;fill-rule:nonzero;stroke:none"
         d="M 43.3984,57.2813 H 238.438" /><path
         id="path60"
         style="fill:none;stroke:#ffffff;stroke-width:3.20000005;stroke-linecap:butt;stroke-linejoin:miter;stroke-miterlimit:1;stroke-dasharray:none;stroke-opacity:1"
         d="M 43.3984,57.2813 H 238.438" /><path
         id="path62"
         style="fill:#0084ff;fill-opacity:1;fill-rule:nonzero;stroke:none"
         d="m 40.7813,201.797 190.6757,0.754" /><path
         id="path64"
         style="fill:none;stroke:#ffffff;stroke-width:3.20000005;stroke-linecap:butt;stroke-linejoin:miter;stroke-miterlimit:1;stroke-dasharray:none;stroke-opacity:1"
         d="m 40.7813,201.797 190.6757,0.754" /><path
         id="path66"
         style="fill:#0084ff;fill-opacity:1;fill-rule:nonzero;stroke:none"
         d="M 40.7813,112.043 H 231.457" /><path
         id="path68"
         style="fill:none;stroke:#ffffff;stroke-width:3.20000005;stroke-linecap:butt;stroke-linejoin:miter;stroke-miterlimit:1;stroke-dasharray:none;stroke-opacity:1"
         d="M 40.7813,112.043 H 231.457" /><path
         id="path70"
         style="fill:none;stroke:#ffffff;stroke-width:8;stroke-linecap:butt;stroke-linejoin:miter;stroke-miterlimit:1;stroke-dasharray:none;stroke-opacity:1"
         d="M 55.3516,177.848 H 173.77" /><path
         id="path72"
         style="fill:#0084ff;fill-opacity:1;fill-rule:nonzero;stroke:none"
         d="m 172.023,162.535 50.516,15.664 -50.516,14.778 v -30.442" /><path
         id="path74"
         style="fill:none;stroke:#ffffff;stroke-width:3.20000005;stroke-linecap:butt;stroke-linejoin:miter;stroke-miterlimit:4;stroke-dasharray:none;stroke-opacity:1"
         d="m 172.023,162.535 50.516,15.664 -50.516,14.778 z" /><path
         id="path76"
         style="fill:#0084ff;fill-opacity:1;fill-rule:nonzero;stroke:none"
         d="M 53.8398,178.723 H 172.266" /><path
         id="path78"
         style="fill:none;stroke:#ffffff;stroke-width:3.20000005;stroke-linecap:butt;stroke-linejoin:miter;stroke-miterlimit:1;stroke-dasharray:none;stroke-opacity:1"
         d="M 53.8398,178.723 H 172.266" /><path
         id="path80"
         style="fill:#ffffff;fill-opacity:1;fill-rule:nonzero;stroke:none"
         d="m 170.508,163.406 50.5,15.657 -50.5,14.781 v -30.438" /><path
         id="path82"
         style="fill:none;stroke:#ffffff;stroke-width:3.20000005;stroke-linecap:butt;stroke-linejoin:miter;stroke-miterlimit:4;stroke-dasharray:none;stroke-opacity:1"
         d="m 170.508,163.406 50.5,15.657 -50.5,14.781 z" /><path
         id="path84"
         style="fill:#0084ff;fill-opacity:1;fill-rule:nonzero;stroke:none"
         d="M 221.32,84.1367 H 102.902" /><path
         id="path86"
         style="fill:none;stroke:#ffffff;stroke-width:3.20000005;stroke-linecap:butt;stroke-linejoin:miter;stroke-miterlimit:1;stroke-dasharray:none;stroke-opacity:1"
         d="M 221.32,84.1367 H 102.902" /><path
         id="path88"
         style="fill:#0084ff;fill-opacity:1;fill-rule:nonzero;stroke:none"
         d="M 104.98,99.9063 54.4844,84.2422 104.98,69.4531 v 30.4532" /><path
         id="path90"
         style="fill:none;stroke:#ffffff;stroke-width:3.20000005;stroke-linecap:butt;stroke-linejoin:miter;stroke-miterlimit:4;stroke-dasharray:none;stroke-opacity:1"
         d="M 104.98,99.9063 54.4844,84.2422 104.98,69.4531 Z" /><path
         id="path92"
         style="fill:none;stroke:#ffffff;stroke-width:8;stroke-linecap:butt;stroke-linejoin:miter;stroke-miterlimit:1;stroke-dasharray:none;stroke-opacity:1"
         d="M 220.148,85.1133 H 101.719" /><path
         id="path94"
         style="fill:#ffffff;fill-opacity:1;fill-rule:nonzero;stroke:none"
         d="M 103.477,100.777 52.9688,85.1133 103.477,70.3203 v 30.4567" /><path
         id="path96"
         style="fill:none;stroke:#ffffff;stroke-width:3.20000005;stroke-linecap:butt;stroke-linejoin:miter;stroke-miterlimit:4;stroke-dasharray:none;stroke-opacity:1"
         d="M 103.477,100.777 52.9688,85.1133 103.477,70.3203 Z" /><path
         id="path98"
         style="fill:#0084ff;fill-opacity:1;fill-rule:nonzero;stroke:none"
         d="m 231.457,245.191 76.629,34.786 V 36.4023 L 231.457,1.60156 V 245.191" /><path
         id="path100"
         style="fill:none;stroke:#ffffff;stroke-width:3.20000005;stroke-linecap:butt;stroke-linejoin:miter;stroke-miterlimit:1;stroke-dasharray:none;stroke-opacity:1"
         d="m 231.457,245.191 76.629,34.786 V 36.4023 L 231.457,1.60156 Z" /><path
         id="path102"
         style="fill:#0084ff;fill-opacity:1;fill-rule:nonzero;stroke:none"
         d="m 273.254,210.375 c 7.84,0 13.934,-13.047 13.934,-31.312 0,-17.399 -6.094,-31.313 -13.934,-31.313 -8.711,0 -13.938,13.914 -13.938,31.313 0,18.265 5.227,31.312 13.938,31.312" /><path
         id="path104"
         style="fill:none;stroke:#ffffff;stroke-width:3.20000005;stroke-linecap:butt;stroke-linejoin:miter;stroke-miterlimit:1;stroke-dasharray:none;stroke-opacity:1"
         d="m 273.254,210.375 c 7.84,0 13.934,-13.047 13.934,-31.312 0,-17.399 -6.094,-31.313 -13.934,-31.313 -8.711,0 -13.938,13.914 -13.938,31.313 0,18.265 5.227,31.312 13.938,31.312" /><path
         id="path106"
         style="fill:#0084ff;fill-opacity:1;fill-rule:nonzero;stroke:none"
         d="m 273.254,119.918 c 7.84,0 13.934,-13.047 13.934,-31.3242 0,-17.4063 -6.094,-31.3125 -13.934,-31.3125 -8.711,0 -13.938,13.9062 -13.938,31.3125 0,18.2772 5.227,31.3242 13.938,31.3242" /><path
         id="path108"
         style="fill:none;stroke:#ffffff;stroke-width:3.20000005;stroke-linecap:butt;stroke-linejoin:miter;stroke-miterlimit:1;stroke-dasharray:none;stroke-opacity:1"
         d="m 273.254,119.918 c 7.84,0 13.934,-13.047 13.934,-31.3242 0,-17.4063 -6.094,-31.3125 -13.934,-31.3125 -8.711,0 -13.938,13.9062 -13.938,31.3125 0,18.2772 5.227,31.3242 13.938,31.3242" /></g></g></svg>