<?xml version="1.0" standalone="no"?>
<!DOCTYPE svg PUBLIC "-//W3C//DTD SVG 20010904//EN"
 "http://www.w3.org/TR/2001/REC-SVG-20010904/DTD/svg10.dtd">
<svg version="1.0" xmlns="http://www.w3.org/2000/svg"
 width="64.000000pt" height="64.000000pt" viewBox="0 0 64.000000 64.000000"
 preserveAspectRatio="xMidYMid meet">
<metadata>
Created by potrace 1.10, written by Peter Selinger 2001-2011
</metadata>
<g transform="translate(0.000000,64.000000) scale(0.050000,-0.050000)"
fill="#0084ff" stroke="none">
<path d="M0 640 l0 -640 240 0 c227 0 240 2 240 40 0 27 -13 40 -40 40 -27 0
-40 13 -40 40 0 27 -13 40 -40 40 -27 0 -40 -13 -40 -40 0 -36 -13 -40 -120
-40 l-120 0 0 160 c0 147 3 160 40 160 27 0 40 13 40 40 0 27 13 40 40 40 27
0 40 13 40 40 0 36 13 40 120 40 107 0 120 -4 120 -40 0 -27 13 -40 40 -40 27
0 40 -13 40 -40 0 -27 13 -40 40 -40 27 0 40 13 40 40 0 27 13 40 40 40 27 0
40 13 40 40 0 33 13 40 80 40 67 0 80 -7 80 -40 0 -27 13 -40 40 -40 27 0 40
13 40 40 0 33 13 40 80 40 67 0 80 -7 80 -40 0 -27 13 -40 40 -40 37 0 40 -13
40 -200 l0 -200 -80 0 c-80 0 -80 0 -80 80 0 67 -7 80 -40 80 -27 0 -40 -13
-40 -40 0 -27 -13 -40 -40 -40 -27 0 -40 13 -40 40 0 27 -13 40 -40 40 -36 0
-40 -13 -40 -120 l0 -120 240 0 240 0 0 640 0 640 -240 0 c-227 0 -240 -2
-240 -40 0 -37 13 -40 200 -40 l200 0 0 -120 0 -120 -80 0 -80 0 0 -120 0
-120 -120 0 -120 0 0 80 0 80 -160 0 -160 0 0 -80 0 -80 -120 0 -120 0 0 240
0 240 120 0 c107 0 120 4 120 40 0 38 -13 40 -240 40 l-240 0 0 -640z"/>
<path d="M320 360 c0 -27 13 -40 40 -40 27 0 40 13 40 40 0 27 -13 40 -40 40
-27 0 -40 -13 -40 -40z"/>
</g>
</svg>
