<?xml version="1.0" standalone="no"?>
<!DOCTYPE svg PUBLIC "-//W3C//DTD SVG 20010904//EN"
 "http://www.w3.org/TR/2001/REC-SVG-20010904/DTD/svg10.dtd">
<svg version="1.0" xmlns="http://www.w3.org/2000/svg"
 width="287.000000pt" height="272.000000pt" viewBox="0 0 287.000000 272.000000"
 preserveAspectRatio="xMidYMid meet">
<metadata>
Created by potrace 1.15, written by Peter Selinger 2001-2017
</metadata>
<g transform="translate(0.000000,272.000000) scale(0.100000,-0.100000)"
stroke="none">
<path fill="#0084ff" d="M1308 2701 c-31 -10 -71 -28 -90 -39 -18 -11 -123 -112 -234 -224
-181 -183 -203 -209 -223 -263 -12 -33 -25 -81 -28 -107 -4 -34 -11 -49 -24
-53 -42 -14 -175 -110 -237 -173 -165 -165 -256 -373 -269 -616 l-6 -109 -72
-71 c-82 -80 -113 -146 -122 -252 -15 -170 105 -342 274 -394 87 -27 148 -25
243 6 l79 26 28 -20 c206 -145 542 -184 803 -94 63 22 152 65 193 94 l28 20
84 -27 c99 -33 173 -31 270 5 55 21 79 42 276 239 196 195 219 222 240 276 18
46 23 80 23 145 0 124 -26 184 -119 276 l-72 71 -6 109 c-19 339 -206 636
-493 782 -37 19 -42 26 -47 65 -4 24 -16 71 -28 103 -31 82 -130 182 -214 214
-82 31 -183 36 -257 11z"/>
<path fill="#dddddd" d="M1308 2701 c-31 -10 -71 -28 -90 -39 -18 -11 -123 -112 -234 -224
-181 -183 -203 -209 -223 -263 -12 -33 -25 -81 -28 -107 -4 -34 -11 -49 -24
-53 -42 -14 -175 -110 -237 -173 -165 -165 -256 -373 -269 -616 l-6 -109 -72
-71 c-82 -80 -113 -146 -122 -252 -15 -170 105 -342 274 -394 87 -27 148 -25
243 6 l79 26 28 -20 c206 -145 542 -184 803 -94 63 22 152 65 193 94 l28 20
84 -27 c99 -33 173 -31 270 5 55 21 79 42 276 239 196 195 219 222 240 276 18
46 23 80 23 145 0 124 -26 184 -119 276 l-72 71 -6 109 c-19 339 -206 636
-493 782 -37 19 -42 26 -47 65 -4 24 -16 71 -28 103 -31 82 -130 182 -214 214
-82 31 -183 36 -257 11z m244 -68 c108 -49 184 -155 194 -273 l6 -65 -119
-118 -119 -118 -18 63 c-9 35 -28 81 -41 103 -33 57 -117 133 -173 156 -26 11
-57 25 -69 31 -23 11 -163 6 -198 -7 -11 -4 29 42 90 104 91 93 119 114 165
131 75 27 214 23 282 -7z m-300 -301 c65 -28 133 -94 165 -161 37 -74 39 -191
6 -263 -30 -66 -96 -133 -162 -165 -47 -24 -69 -28 -136 -28 -67 0 -89 5 -136
28 -222 108 -252 393 -57 550 84 68 219 84 320 39z m612 -102 c138 -80 258
-208 331 -355 62 -124 86 -223 92 -375 l5 -125 -121 -120 -121 -120 0 61 c0
132 -52 331 -116 443 -80 140 -205 268 -339 346 l-66 38 118 119 c85 85 124
118 142 118 13 0 47 -13 75 -30z m-1066 -417 c39 -55 122 -121 180 -144 80
-32 204 -32 284 0 102 40 198 145 229 249 7 23 14 42 17 42 2 0 28 -13 56 -30
244 -141 405 -406 423 -699 l6 -94 -24 7 c-141 42 -302 -7 -401 -122 -67 -77
-92 -146 -92 -252 0 -106 26 -178 91 -250 53 -59 58 -51 -62 -110 -129 -64
-216 -83 -380 -83 -163 0 -248 18 -379 83 -121 59 -116 51 -63 110 65 72 91
144 91 250 0 106 -25 175 -92 252 -80 94 -202 145 -316 135 -34 -3 -71 -9 -83
-13 -22 -6 -23 -4 -23 57 0 90 32 234 72 326 75 174 195 310 358 406 l44 26
21 -58 c12 -32 31 -72 43 -88z m1602 -530 c59 -67 73 -114 78 -256 l4 -128
-126 -127 c-104 -104 -125 -122 -119 -97 4 17 8 64 7 105 -1 111 -30 178 -113
260 l-66 64 125 126 125 125 26 -17 c15 -10 41 -34 59 -55z m-418 -211 c65
-28 133 -94 165 -161 37 -74 39 -191 6 -263 -30 -66 -96 -133 -162 -165 -47
-24 -69 -28 -136 -28 -67 0 -89 5 -136 28 -222 108 -252 393 -57 550 84 68
219 84 320 39z m-1460 -10 c65 -28 133 -94 165 -161 23 -47 28 -69 28 -136 0
-68 -4 -89 -28 -137 -32 -65 -99 -130 -167 -162 -70 -32 -187 -29 -261 7 -184
89 -245 323 -126 479 44 57 119 113 171 126 61 16 164 8 218 -16z"/>
</g>
</svg>
