<?xml version="1.0" standalone="no"?>
<!DOCTYPE svg PUBLIC "-//W3C//DTD SVG 20010904//EN"
 "http://www.w3.org/TR/2001/REC-SVG-20010904/DTD/svg10.dtd">
<svg version="1.0" xmlns="http://www.w3.org/2000/svg"
 width="16.000000pt" height="16.000000pt" viewBox="0 0 16.000000 16.000000"
 preserveAspectRatio="xMidYMid meet">
<metadata>
Created by potrace 1.10, written by Peter Selinger 2001-2011
</metadata>
<g transform="translate(0.000000,16.000000) scale(0.050000,-0.050000)"
fill="#0084ff" stroke="none">
<path d="M0 280 c0 -27 13 -40 40 -40 27 0 40 13 40 40 0 27 -13 40 -40 40
-27 0 -40 -13 -40 -40z"/>
<path d="M100 280 c0 -11 50 -20 110 -20 61 0 110 9 110 20 0 11 -49 20 -110
20 -60 0 -110 -9 -110 -20z"/>
<path d="M0 160 c0 -27 13 -40 40 -40 27 0 40 13 40 40 0 27 -13 40 -40 40
-27 0 -40 -13 -40 -40z"/>
<path d="M100 160 c0 -11 50 -20 110 -20 61 0 110 9 110 20 0 11 -49 20 -110
20 -60 0 -110 -9 -110 -20z"/>
<path d="M0 40 c0 -27 13 -40 40 -40 27 0 40 13 40 40 0 27 -13 40 -40 40 -27
0 -40 -13 -40 -40z"/>
<path d="M100 40 c0 -11 50 -20 110 -20 61 0 110 9 110 20 0 11 -49 20 -110
20 -60 0 -110 -9 -110 -20z"/>
</g>
</svg>
