<?xml version="1.0" encoding="UTF-8" standalone="no"?>
<svg
   xmlns:dc="http://purl.org/dc/elements/1.1/"
   xmlns:cc="http://creativecommons.org/ns#"
   xmlns:rdf="http://www.w3.org/1999/02/22-rdf-syntax-ns#"
   xmlns:svg="http://www.w3.org/2000/svg"
   xmlns="http://www.w3.org/2000/svg"
   viewBox="0 0 32.200001 45.173332"
   height="45.173332"
   width="32.200001"
   xml:space="preserve"
   id="svg2"
   version="1.1"><metadata
     id="metadata8"><rdf:RDF><cc:Work
         rdf:about=""><dc:format>image/svg+xml</dc:format><dc:type
           rdf:resource="http://purl.org/dc/dcmitype/StillImage" /></cc:Work></rdf:RDF></metadata><defs
     id="defs6" /><g
     transform="matrix(1.3333333,0,0,-1.3333333,0,45.173333)"
     id="g10"><g
       transform="scale(0.1)"
       id="g12"><path
         id="path14"
         style="fill:#0084ff;fill-opacity:1;fill-rule:nonzero;stroke:none"
         d="M 184.328,280.027 H 95.0977 L 95.5781,13.0352 H 184.328 V 280.027" /><path
         id="path16"
         style="fill:none;stroke:#ffffff;stroke-width:4;stroke-linecap:butt;stroke-linejoin:miter;stroke-miterlimit:4;stroke-dasharray:none;stroke-opacity:1"
         d="M 184.328,280.027 H 95.0977 L 95.5781,13.0352 h 88.7499 z" /><path
         id="path18"
         style="fill:#0084ff;fill-opacity:1;fill-rule:nonzero;stroke:none"
         d="m 107.785,182.723 h 62.9492 v 60.4219 H 107.785 Z" /><path
         id="path20"
         style="fill:none;stroke:#ffffff;stroke-width:4;stroke-linecap:butt;stroke-linejoin:miter;stroke-miterlimit:4;stroke-dasharray:none;stroke-opacity:1"
         d="m 107.785,182.723 h 62.9492 v 60.4219 H 107.785 Z" /><path
         id="path22"
         style="fill:#0084ff;fill-opacity:1;fill-rule:nonzero;stroke:none"
         d="M 237.258,333.801 184.445,278.934 V 12.9766 l 52.782,62.5586 0.031,258.2658" /><path
         id="path24"
         style="fill:none;stroke:#ffffff;stroke-width:4;stroke-linecap:butt;stroke-linejoin:miter;stroke-miterlimit:4;stroke-dasharray:none;stroke-opacity:1"
         d="M 237.258,333.801 184.445,278.934 V 12.9766 l 52.782,62.5586 z" /><path
         id="path26"
         style="fill:#0084ff;fill-opacity:1;fill-rule:nonzero;stroke:none"
         d="M 17.6289,281.582 H 90.6953" /><path
         id="path28"
         style="fill:none;stroke:#ffffff;stroke-width:4;stroke-linecap:butt;stroke-linejoin:miter;stroke-miterlimit:4;stroke-dasharray:none;stroke-opacity:1"
         d="M 17.6289,281.582 H 90.6953" /><path
         id="path30"
         style="fill:#0084ff;fill-opacity:1;fill-rule:nonzero;stroke:none"
         d="m 105.578,290.43 33.555,36.738" /><path
         id="path32"
         style="fill:none;stroke:#ffffff;stroke-width:4;stroke-linecap:butt;stroke-linejoin:miter;stroke-miterlimit:4;stroke-dasharray:none;stroke-opacity:1"
         d="m 105.578,290.43 33.555,36.738" /><path
         id="path34"
         style="fill:#0084ff;fill-opacity:1;fill-rule:nonzero;stroke:none"
         d="m 92.2383,276.047 c 0,0 -0.4219,-17.68 -32.5977,-17.317 l -56.93357,8.711 v 3.418 L 82.7656,334.707 236.828,334.559 184.914,280.051 H 95.6758" /><path
         id="path36"
         style="fill:none;stroke:#ffffff;stroke-width:4;stroke-linecap:butt;stroke-linejoin:miter;stroke-miterlimit:4;stroke-dasharray:none;stroke-opacity:1"
         d="m 92.2383,276.047 c 0,0 -0.4219,-17.68 -32.5977,-17.317 l -56.93357,8.711 v 3.418 L 82.7656,334.707 236.828,334.559 184.914,280.051 H 95.6758" /><path
         id="path38"
         style="fill:#0084ff;fill-opacity:1;fill-rule:nonzero;stroke:none"
         d="m 94.9531,279.109 c 0,0 -25.8515,-15.195 -55.5508,-11.765 L 2.00391,270.508 V 4.09375 L 39.4023,2.5 C 77.3555,-0.800781 95.1094,12.8438 95.1094,12.8438 L 94.9531,279.109" /><path
         id="path40"
         style="fill:none;stroke:#ffffff;stroke-width:4;stroke-linecap:butt;stroke-linejoin:miter;stroke-miterlimit:4;stroke-dasharray:none;stroke-opacity:1"
         d="m 94.9531,279.109 c 0,0 -25.8515,-15.195 -55.5508,-11.765 L 2.00391,270.508 V 4.09375 L 39.4023,2.5 c 37.9532,-3.300781 55.7071,10.3438 55.7071,10.3438 z" /><path
         id="path42"
         style="fill:#0084ff;fill-opacity:1;fill-rule:nonzero;stroke:none"
         d="M 18.3398,282.805 H 91.418" /><path
         id="path44"
         style="fill:none;stroke:#ffffff;stroke-width:4;stroke-linecap:butt;stroke-linejoin:miter;stroke-miterlimit:4;stroke-dasharray:none;stroke-opacity:1"
         d="M 18.3398,282.805 H 91.418" /><path
         id="path46"
         style="fill:#0084ff;fill-opacity:1;fill-rule:nonzero;stroke:none"
         d="m 112.902,291.641 40.078,36.961" /><path
         id="path48"
         style="fill:none;stroke:#ffffff;stroke-width:4;stroke-linecap:butt;stroke-linejoin:miter;stroke-miterlimit:4;stroke-dasharray:none;stroke-opacity:1"
         d="m 112.902,291.641 40.078,36.961" /></g></g></svg>