<?xml version="1.0" encoding="UTF-8" standalone="no"?>
<svg
   xmlns:dc="http://purl.org/dc/elements/1.1/"
   xmlns:cc="http://creativecommons.org/ns#"
   xmlns:rdf="http://www.w3.org/1999/02/22-rdf-syntax-ns#"
   xmlns:svg="http://www.w3.org/2000/svg"
   xmlns="http://www.w3.org/2000/svg"
   viewBox="0 0 38.866669 35.373333"
   height="35.373333"
   width="38.866669"
   xml:space="preserve"
   id="svg2"
   version="1.1"><metadata
     id="metadata8"><rdf:RDF><cc:Work
         rdf:about=""><dc:format>image/svg+xml</dc:format><dc:type
           rdf:resource="http://purl.org/dc/dcmitype/StillImage" /></cc:Work></rdf:RDF></metadata><defs
     id="defs6" /><g
     transform="matrix(1.3333333,0,0,-1.3333333,0,35.373333)"
     id="g10"><g
       transform="scale(0.1)"
       id="g12"><path
         id="path14"
         style="fill:#0084ff;fill-opacity:1;fill-rule:nonzero;stroke:none"
         d="M 228.477,4.23828 V 213.762 H 7.13281 V 4.23828 H 228.477" /><path
         id="path16"
         style="fill:none;stroke:#ffffff;stroke-width:4;stroke-linecap:butt;stroke-linejoin:miter;stroke-miterlimit:4;stroke-dasharray:none;stroke-opacity:1"
         d="M 228.477,4.23828 V 213.762 H 7.13281 V 4.23828 Z" /><path
         id="path18"
         style="fill:#0084ff;fill-opacity:1;fill-rule:nonzero;stroke:none"
         d="m 228.477,213.762 57.449,47.308 H 84.8594 L 7.13281,213.762 H 228.477" /><path
         id="path20"
         style="fill:none;stroke:#ffffff;stroke-width:4;stroke-linecap:butt;stroke-linejoin:miter;stroke-miterlimit:4;stroke-dasharray:none;stroke-opacity:1"
         d="m 228.477,213.762 57.449,47.308 H 84.8594 L 7.13281,213.762 Z" /><path
         id="path22"
         style="fill:#0084ff;fill-opacity:1;fill-rule:nonzero;stroke:none"
         d="M 285.926,51.5547 V 261.07 L 228.477,213.762 V 4.23828 l 57.449,47.31642" /><path
         id="path24"
         style="fill:none;stroke:#ffffff;stroke-width:4;stroke-linecap:butt;stroke-linejoin:miter;stroke-miterlimit:4;stroke-dasharray:none;stroke-opacity:1"
         d="M 285.926,51.5547 V 261.07 L 228.477,213.762 V 4.23828 Z" /><path
         id="path26"
         style="fill:#ffffff;fill-opacity:1;fill-rule:nonzero;stroke:none"
         d="m 30.0977,14.6875 c 5.2695,0 9.5468,4.2773 9.5468,9.5508 0,5.2656 -4.2773,9.5312 -9.5468,9.5312 -5.2735,0 -9.5508,-4.2656 -9.5508,-9.5312 0,-5.2735 4.2773,-9.5508 9.5508,-9.5508" /><path
         id="path28"
         style="fill:none;stroke:#0084ff;stroke-width:2;stroke-linecap:butt;stroke-linejoin:miter;stroke-miterlimit:4;stroke-dasharray:none;stroke-opacity:1"
         d="m 30.0977,14.6875 c 5.2695,0 9.5468,4.2773 9.5468,9.5508 0,5.2656 -4.2773,9.5312 -9.5468,9.5312 -5.2735,0 -9.5508,-4.2656 -9.5508,-9.5312 0,-5.2735 4.2773,-9.5508 9.5508,-9.5508 z" /><path
         id="path30"
         style="fill:#ffffff;fill-opacity:1;fill-rule:nonzero;stroke:none"
         d="M 21.9219,34.4141 40.5781,16.1914 93.2813,70.1367 74.6289,88.3594 21.9219,34.4141" /><path
         id="path32"
         style="fill:none;stroke:#0084ff;stroke-width:2;stroke-linecap:butt;stroke-linejoin:miter;stroke-miterlimit:4;stroke-dasharray:none;stroke-opacity:1"
         d="M 21.9219,34.4141 40.5781,16.1914 93.2813,70.1367 74.6289,88.3594 Z" /><path
         id="path34"
         style="fill:#ffffff;fill-opacity:1;fill-rule:nonzero;stroke:none"
         d="m 67.168,128.086 c 0,-39.4337 32.0859,-71.5157 71.523,-71.5157 39.434,0 71.524,32.082 71.524,71.5157 0,39.434 -32.09,71.523 -71.524,71.523 -39.4371,0 -71.523,-32.089 -71.523,-71.523 z m 10,0 c 0,33.926 27.598,61.523 61.523,61.523 33.922,0 61.524,-27.597 61.524,-61.523 0,-33.9141 -27.602,-61.5157 -61.524,-61.5157 -33.925,0 -61.523,27.6016 -61.523,61.5157" /><path
         id="path36"
         style="fill:none;stroke:#0084ff;stroke-width:2;stroke-linecap:butt;stroke-linejoin:miter;stroke-miterlimit:4;stroke-dasharray:none;stroke-opacity:1"
         d="m 67.168,128.086 c 0,-39.4337 32.0859,-71.5157 71.523,-71.5157 39.434,0 71.524,32.082 71.524,71.5157 0,39.434 -32.09,71.523 -71.524,71.523 -39.4371,0 -71.523,-32.089 -71.523,-71.523 z m 10,0 c 0,33.926 27.598,61.523 61.523,61.523 33.922,0 61.524,-27.597 61.524,-61.523 0,-33.9141 -27.602,-61.5157 -61.524,-61.5157 -33.925,0 -61.523,27.6016 -61.523,61.5157 z" /><path
         id="path38"
         style="fill:#ffffff;fill-opacity:1;fill-rule:nonzero;stroke:none"
         d="m 58.7891,123.965 c 0,-39.4337 32.0859,-71.5236 71.5199,-71.5236 39.433,0 71.519,32.0899 71.519,71.5236 0,39.433 -32.086,71.523 -71.519,71.523 -39.434,0 -71.5199,-32.09 -71.5199,-71.523 z m 10,0 c 0,33.926 27.5976,61.523 61.5199,61.523 33.918,0 61.519,-27.597 61.519,-61.523 0,-33.9259 -27.601,-61.5236 -61.519,-61.5236 -33.9223,0 -61.5199,27.5977 -61.5199,61.5236" /><path
         id="path40"
         style="fill:none;stroke:#0084ff;stroke-width:2;stroke-linecap:butt;stroke-linejoin:miter;stroke-miterlimit:4;stroke-dasharray:none;stroke-opacity:1"
         d="m 58.7891,123.965 c 0,-39.4337 32.0859,-71.5236 71.5199,-71.5236 39.433,0 71.519,32.0899 71.519,71.5236 0,39.433 -32.086,71.523 -71.519,71.523 -39.434,0 -71.5199,-32.09 -71.5199,-71.523 z m 10,0 c 0,33.926 27.5976,61.523 61.5199,61.523 33.918,0 61.519,-27.597 61.519,-61.523 0,-33.9259 -27.601,-61.5236 -61.519,-61.5236 -33.9223,0 -61.5199,27.5977 -61.5199,61.5236 z" /><path
         id="path42"
         style="fill:none;stroke:#ffffff;stroke-width:13.11299992;stroke-linecap:butt;stroke-linejoin:miter;stroke-miterlimit:4;stroke-dasharray:none;stroke-opacity:1"
         d="M 159.77,98.9453 V 152.5 H 106.227 V 98.9453 Z" /></g></g></svg>