<?xml version="1.0" encoding="UTF-8" standalone="no"?>
<svg
   xmlns:dc="http://purl.org/dc/elements/1.1/"
   xmlns:cc="http://creativecommons.org/ns#"
   xmlns:rdf="http://www.w3.org/1999/02/22-rdf-syntax-ns#"
   xmlns:svg="http://www.w3.org/2000/svg"
   xmlns="http://www.w3.org/2000/svg"
   viewBox="0 0 41.066666 30.559999"
   height="30.559999"
   width="41.066666"
   xml:space="preserve"
   id="svg2"
   version="1.1"><metadata
     id="metadata8"><rdf:RDF><cc:Work
         rdf:about=""><dc:format>image/svg+xml</dc:format><dc:type
           rdf:resource="http://purl.org/dc/dcmitype/StillImage" /></cc:Work></rdf:RDF></metadata><defs
     id="defs6" /><g
     transform="matrix(1.3333333,0,0,-1.3333333,0,30.56)"
     id="g10"><g
       transform="scale(0.1)"
       id="g12"><path
         id="path14"
         style="fill:#0084ff;fill-opacity:1;fill-rule:nonzero;stroke:none"
         d="m 4.02734,5.82031 h 209.863 v 49.2539 H 4.02734 Z" /><path
         id="path16"
         style="fill:none;stroke:#ffffff;stroke-width:4;stroke-linecap:butt;stroke-linejoin:miter;stroke-miterlimit:4;stroke-dasharray:none;stroke-opacity:1"
         d="m 4.02734,5.82031 h 209.863 v 49.2539 H 4.02734 Z" /><path
         id="path18"
         style="fill:#0084ff;fill-opacity:1;fill-rule:nonzero;stroke:none"
         d="M 213.891,55.0742 H 3.80469 L 103.637,199.984 H 304.426 L 213.891,55.0742" /><path
         id="path20"
         style="fill:none;stroke:#ffffff;stroke-width:4;stroke-linecap:butt;stroke-linejoin:miter;stroke-miterlimit:4;stroke-dasharray:none;stroke-opacity:1"
         d="M 213.891,55.0742 H 3.80469 L 103.637,199.984 h 200.789 z" /><path
         id="path22"
         style="fill:#0084ff;fill-opacity:1;fill-rule:nonzero;stroke:none"
         d="M 304.426,199.984 V 107.34 L 213.891,5.26953 V 55.0742 l 90.535,144.9098" /><path
         id="path24"
         style="fill:none;stroke:#ffffff;stroke-width:4;stroke-linecap:butt;stroke-linejoin:miter;stroke-miterlimit:4;stroke-dasharray:none;stroke-opacity:1"
         d="M 304.426,199.984 V 107.34 L 213.891,5.26953 V 55.0742 Z" /><path
         id="path26"
         style="fill:#0084ff;fill-opacity:1;fill-rule:nonzero;stroke:none"
         d="M 213.891,55.0742 304.426,199.984" /><path
         id="path28"
         style="fill:none;stroke:#ffffff;stroke-width:4;stroke-linecap:butt;stroke-linejoin:miter;stroke-miterlimit:4;stroke-dasharray:none;stroke-opacity:1"
         d="M 213.891,55.0742 304.426,199.984" /><path
         id="path30"
         style="fill:#0084ff;fill-opacity:1;fill-rule:nonzero;stroke:none"
         d="m 170.012,173.633 c -12.895,-14.824 -28.797,-32.11 -38.996,-48.875 l 0.863,-10.891 -31.801,-49.1287 -3.6874,31.9765 C 102.441,120.914 177.512,215.977 194.797,227.211 l 3.683,-31.977 -27.656,-31.816 -0.812,10.215" /><path
         id="path32"
         style="fill:none;stroke:#ffffff;stroke-width:4;stroke-linecap:butt;stroke-linejoin:round;stroke-miterlimit:4;stroke-dasharray:none;stroke-opacity:1"
         d="m 170.012,173.633 c -12.895,-14.824 -28.797,-32.11 -38.996,-48.875 l 0.863,-10.891 -31.801,-49.1287 -3.6874,31.9765 C 102.441,120.914 177.512,215.977 194.797,227.211 l 3.683,-31.977 -27.656,-31.816 z" /><path
         id="path34"
         style="fill:#0084ff;fill-opacity:1;fill-rule:nonzero;stroke:none"
         d="M 58.8203,96.7148 55.1406,64.7383 H 100.078 L 96.3906,96.7148 H 58.8203" /><path
         id="path36"
         style="fill:none;stroke:#ffffff;stroke-width:4;stroke-linecap:butt;stroke-linejoin:round;stroke-miterlimit:4;stroke-dasharray:none;stroke-opacity:1"
         d="M 58.8203,96.7148 55.1406,64.7383 h 44.9374 l -3.6874,31.9765 z" /><path
         id="path38"
         style="fill:#0084ff;fill-opacity:1;fill-rule:nonzero;stroke:none"
         d="M 194.797,227.211 C 177.512,215.977 102.441,120.914 96.3906,96.7148 H 58.8203 C 64.8711,120.914 139.941,215.977 157.223,227.211 h 37.574" /><path
         id="path40"
         style="fill:none;stroke:#ffffff;stroke-width:4;stroke-linecap:butt;stroke-linejoin:round;stroke-miterlimit:4;stroke-dasharray:none;stroke-opacity:1"
         d="M 194.797,227.211 C 177.512,215.977 102.441,120.914 96.3906,96.7148 H 58.8203 C 64.8711,120.914 139.941,215.977 157.223,227.211 Z" /><path
         id="path42"
         style="fill:#0084ff;fill-opacity:1;fill-rule:nonzero;stroke:none"
         d="m 129.91,71.7266 44.363,63.3044 h 66.758 L 201.402,71.7266 H 129.91" /><path
         id="path44"
         style="fill:none;stroke:#ffffff;stroke-width:3.47199988;stroke-linecap:butt;stroke-linejoin:miter;stroke-miterlimit:4;stroke-dasharray:none;stroke-opacity:1"
         d="m 129.91,71.7266 44.363,63.3044 h 66.758 L 201.402,71.7266 Z" /><path
         id="path46"
         style="fill:#0084ff;fill-opacity:1;fill-rule:nonzero;stroke:none"
         d="m 177.574,71.7266 41.207,63.3044" /><path
         id="path48"
         style="fill:none;stroke:#ffffff;stroke-width:3.47199988;stroke-linecap:butt;stroke-linejoin:miter;stroke-miterlimit:4;stroke-dasharray:none;stroke-opacity:1"
         d="m 177.574,71.7266 41.207,63.3044" /><path
         id="path50"
         style="fill:#0084ff;fill-opacity:1;fill-rule:nonzero;stroke:none"
         d="m 153.742,71.7266 42.785,63.3044" /><path
         id="path52"
         style="fill:none;stroke:#ffffff;stroke-width:3.47199988;stroke-linecap:butt;stroke-linejoin:miter;stroke-miterlimit:4;stroke-dasharray:none;stroke-opacity:1"
         d="m 153.742,71.7266 42.785,63.3044" /><path
         id="path54"
         style="fill:#0084ff;fill-opacity:1;fill-rule:nonzero;stroke:none"
         d="M 211.313,87.5547 H 141" /><path
         id="path56"
         style="fill:none;stroke:#ffffff;stroke-width:3.47199988;stroke-linecap:butt;stroke-linejoin:miter;stroke-miterlimit:4;stroke-dasharray:none;stroke-opacity:1"
         d="M 211.313,87.5547 H 141" /><path
         id="path58"
         style="fill:#0084ff;fill-opacity:1;fill-rule:nonzero;stroke:none"
         d="M 221.219,103.379 H 152.094" /><path
         id="path60"
         style="fill:none;stroke:#ffffff;stroke-width:3.47199988;stroke-linecap:butt;stroke-linejoin:miter;stroke-miterlimit:4;stroke-dasharray:none;stroke-opacity:1"
         d="M 221.219,103.379 H 152.094" /><path
         id="path62"
         style="fill:#0084ff;fill-opacity:1;fill-rule:nonzero;stroke:none"
         d="M 231.125,119.207 H 163.184" /><path
         id="path64"
         style="fill:none;stroke:#ffffff;stroke-width:3.47199988;stroke-linecap:butt;stroke-linejoin:miter;stroke-miterlimit:4;stroke-dasharray:none;stroke-opacity:1"
         d="M 231.125,119.207 H 163.184" /></g></g></svg>