<?xml version="1.0" encoding="UTF-8" standalone="no"?>
<!DOCTYPE svg PUBLIC "-//W3C//DTD SVG 20010904//EN"
              "http://www.w3.org/TR/2001/REC-SVG-20010904/DTD/svg10.dtd">

<svg xmlns="http://www.w3.org/2000/svg"
     width="7.11022in" height="7.11022in"
     viewBox="0 0 512 512">
  <path id="선택 #3"
        fill="#0084ff" stroke="none"
        d="M 161.06,44.00
           C 169.93,20.63 193.15,0.04 219.00,0.00
             219.00,0.00 256.00,0.00 256.00,0.00
             256.00,0.00 293.00,0.00 293.00,0.00
             318.85,0.04 342.07,20.63 350.94,44.00
             355.22,55.30 356.00,66.08 356.00,78.00
             356.00,78.00 429.00,78.00 429.00,78.00
             436.36,78.04 443.54,79.16 448.61,85.09
             455.09,92.67 453.00,108.31 453.00,118.00
             453.00,118.00 473.00,118.00 473.00,118.00
             473.00,118.00 473.00,158.00 473.00,158.00
             473.00,158.00 434.00,158.00 434.00,158.00
             434.00,158.00 434.00,448.00 434.00,448.00
             434.00,448.00 432.48,466.00 432.48,466.00
             426.98,491.89 403.61,511.96 377.00,512.00
             377.00,512.00 135.00,512.00 135.00,512.00
             108.39,511.96 85.02,491.89 79.52,466.00
             79.52,466.00 78.00,448.00 78.00,448.00
             78.00,448.00 78.00,158.00 78.00,158.00
             78.00,158.00 39.00,158.00 39.00,158.00
             39.00,158.00 39.00,118.00 39.00,118.00
             39.00,118.00 59.00,118.00 59.00,118.00
             59.00,108.31 56.91,92.67 63.39,85.09
             68.14,79.53 75.02,78.09 82.00,78.00
             82.00,78.00 156.00,78.00 156.00,78.00
             156.00,66.08 156.78,55.30 161.06,44.00 Z
           M 301.00,45.65
           C 291.56,39.04 274.33,41.00 263.00,41.00
             263.00,41.00 239.00,41.00 239.00,41.00
             239.00,41.00 227.00,41.00 227.00,41.00
             213.55,41.17 203.21,48.92 199.64,62.00
             197.71,69.06 198.00,70.90 198.00,78.00
             198.00,78.00 314.00,78.00 314.00,78.00
             314.00,65.07 312.55,53.73 301.00,45.65 Z
           M 299.00,158.00
           C 299.00,158.00 284.00,159.00 284.00,159.00
             284.00,159.00 228.00,159.00 228.00,159.00
             228.00,159.00 211.00,158.00 211.00,158.00
             211.00,158.00 119.00,158.00 119.00,158.00
             119.00,158.00 119.00,399.00 119.00,399.00
             119.00,399.00 119.00,452.00 119.00,452.00
             119.18,466.45 128.74,471.98 142.00,472.00
             142.00,472.00 335.00,472.00 335.00,472.00
             335.00,472.00 372.00,472.00 372.00,472.00
             380.92,471.89 389.10,468.01 392.15,459.00
             393.12,456.12 393.00,453.00 393.00,450.00
             393.00,450.00 393.00,158.00 393.00,158.00
             393.00,158.00 299.00,158.00 299.00,158.00 Z
           M 197.00,196.00
           C 197.00,196.00 197.00,434.00 197.00,434.00
             197.00,434.00 157.00,434.00 157.00,434.00
             157.00,434.00 157.00,196.00 157.00,196.00
             157.00,196.00 197.00,196.00 197.00,196.00 Z
           M 276.00,196.00
           C 276.00,196.00 276.00,434.00 276.00,434.00
             276.00,434.00 236.00,434.00 236.00,434.00
             236.00,434.00 236.00,196.00 236.00,196.00
             236.00,196.00 276.00,196.00 276.00,196.00 Z
           M 355.00,196.00
           C 355.00,196.00 355.00,434.00 355.00,434.00
             355.00,434.00 315.00,434.00 315.00,434.00
             315.00,434.00 315.00,196.00 315.00,196.00
             315.00,196.00 355.00,196.00 355.00,196.00 Z" />
</svg>
