<?xml version="1.0" encoding="UTF-8" standalone="no"?>
<svg
   xmlns:dc="http://purl.org/dc/elements/1.1/"
   xmlns:cc="http://creativecommons.org/ns#"
   xmlns:rdf="http://www.w3.org/1999/02/22-rdf-syntax-ns#"
   xmlns:svg="http://www.w3.org/2000/svg"
   xmlns="http://www.w3.org/2000/svg"
   viewBox="0 0 33.866669 39"
   height="39"
   width="33.866669"
   xml:space="preserve"
   id="svg2"
   version="1.1"><metadata
     id="metadata8"><rdf:RDF><cc:Work
         rdf:about=""><dc:format>image/svg+xml</dc:format><dc:type
           rdf:resource="http://purl.org/dc/dcmitype/StillImage" /></cc:Work></rdf:RDF></metadata><defs
     id="defs6" /><g
     transform="matrix(1.3333333,0,0,-1.3333333,0,39)"
     id="g10"><g
       transform="scale(0.1)"
       id="g12"><path
         id="path14"
         style="fill:#0084ff;fill-opacity:1;fill-rule:nonzero;stroke:none"
         d="m 202,2 c 5.523,0 10,4.47656 10,10 v 122.5 c 0,5.523 -4.477,10 -10,10 H 12 c -5.52344,0 -10,-4.477 -10,-10 V 12 C 2,6.47656 6.47656,2 12,2 h 190" /><path
         id="path16"
         style="fill:none;stroke:#ffffff;stroke-width:4;stroke-linecap:butt;stroke-linejoin:miter;stroke-miterlimit:4;stroke-dasharray:none;stroke-opacity:1"
         d="m 202,2 c 5.523,0 10,4.47656 10,10 v 122.5 c 0,5.523 -4.477,10 -10,10 H 12 c -5.52344,0 -10,-4.477 -10,-10 V 12 C 2,6.47656 6.47656,2 12,2 Z" /><path
         id="path18"
         style="fill:#0084ff;fill-opacity:1;fill-rule:nonzero;stroke:none"
         d="m 212,144.773 40,40 H 42 l -40,-40 h 210" /><path
         id="path20"
         style="fill:none;stroke:#ffffff;stroke-width:4;stroke-linecap:butt;stroke-linejoin:round;stroke-miterlimit:4;stroke-dasharray:none;stroke-opacity:1"
         d="m 212,144.773 40,40 H 42 l -40,-40 z" /><path
         id="path22"
         style="fill:#0084ff;fill-opacity:1;fill-rule:nonzero;stroke:none"
         d="M 252,42.2734 V 184.773 l -40,-40 V 2.27344 l 40,39.99996" /><path
         id="path24"
         style="fill:none;stroke:#ffffff;stroke-width:4;stroke-linecap:butt;stroke-linejoin:round;stroke-miterlimit:4;stroke-dasharray:none;stroke-opacity:1"
         d="M 252,42.2734 V 184.773 l -40,-40 V 2.27344 Z" /><path
         id="path26"
         style="fill:#0084ff;fill-opacity:1;fill-rule:nonzero;stroke:none"
         d="m 128.336,272.809 c -30.2305,0 -54.7383,-24.508 -54.7383,-54.735 l 0.0781,-48.621 c 0.4062,-3.867 -3.4766,-7.906 -9.2774,-8.512 -5.7968,-0.605 -12.082,2.286 -12.4843,6.153 l -0.0118,48.281 c 0,41.469 33.6172,75.082 75.0817,75.082 41.469,0 75.086,-33.613 75.086,-75.082 l -0.011,-52.66 c -0.407,-3.867 -4.559,-6.465 -10.426,-6.274 -5.332,0.172 -10.176,7.118 -9.774,10.985 l 0.211,50.648 c 0,30.227 -23.507,54.735 -53.734,54.735" /><path
         id="path28"
         style="fill:none;stroke:#ffffff;stroke-width:4;stroke-linecap:butt;stroke-linejoin:miter;stroke-miterlimit:4;stroke-dasharray:none;stroke-opacity:1"
         d="m 128.336,272.809 c -30.2305,0 -54.7383,-24.508 -54.7383,-54.735 l 0.0781,-48.621 c 0.4062,-3.867 -3.4766,-7.906 -9.2774,-8.512 -5.7968,-0.605 -12.082,2.286 -12.4843,6.153 l -0.0118,48.281 c 0,41.469 33.6172,75.082 75.0817,75.082 41.469,0 75.086,-33.613 75.086,-75.082 l -0.011,-52.66 c -0.407,-3.867 -4.559,-6.465 -10.426,-6.274 -5.332,0.172 -10.176,7.118 -9.774,10.985 l 0.211,50.648 c 0,30.227 -23.507,54.735 -53.734,54.735 z" /><path
         id="path30"
         style="fill:#ffffff;fill-opacity:1;fill-rule:nonzero;stroke:none"
         d="m 106.75,60.7656 c 9.488,0 17.184,9.9375 17.184,22.1914 0,12.2578 -7.696,22.195 -17.184,22.195 -9.4883,0 -17.1836,-9.9372 -17.1836,-22.195 0,-12.2539 7.6953,-22.1914 17.1836,-22.1914" /><path
         id="path32"
         style="fill:#ffffff;fill-opacity:1;fill-rule:nonzero;stroke:none"
         d="m 111.875,37.9922 v 43.6094 l -10.75,-7.875 V 30.1211 l 10.75,7.8711" /></g></g></svg>