<?xml version="1.0" encoding="UTF-8" standalone="no"?>
<svg
   xmlns:dc="http://purl.org/dc/elements/1.1/"
   xmlns:cc="http://creativecommons.org/ns#"
   xmlns:rdf="http://www.w3.org/1999/02/22-rdf-syntax-ns#"
   xmlns:svg="http://www.w3.org/2000/svg"
   xmlns="http://www.w3.org/2000/svg"
   viewBox="0 0 35 53.026669"
   height="53.026669"
   width="35"
   xml:space="preserve"
   id="svg2"
   version="1.1"><metadata
     id="metadata8"><rdf:RDF><cc:Work
         rdf:about=""><dc:format>image/svg+xml</dc:format><dc:type
           rdf:resource="http://purl.org/dc/dcmitype/StillImage" /></cc:Work></rdf:RDF></metadata><defs
     id="defs6" /><g
     transform="matrix(1.3333333,0,0,-1.3333333,0,53.026667)"
     id="g10"><g
       transform="scale(0.1)"
       id="g12"><path
         id="path14"
         style="fill:#0084ff;fill-opacity:1;fill-rule:nonzero;stroke:none"
         d="m 57.4531,4.82422 h 153.875 v 341.777 H 57.4531 Z" /><path
         id="path16"
         style="fill:none;stroke:#ffffff;stroke-width:4;stroke-linecap:butt;stroke-linejoin:miter;stroke-miterlimit:4;stroke-dasharray:none;stroke-opacity:1"
         d="M 211.328,346.602 H 57.4531 V 4.82422 H 211.328" /><path
         id="path18"
         style="fill:#0084ff;fill-opacity:1;fill-rule:nonzero;stroke:none"
         d="M 211.328,4.82422 260.48,53.9648 V 395.742 H 106.594 L 57.4531,346.602 H 211.328 V 4.82422" /><path
         id="path20"
         style="fill:none;stroke:#ffffff;stroke-width:4;stroke-linecap:butt;stroke-linejoin:miter;stroke-miterlimit:4;stroke-dasharray:none;stroke-opacity:1"
         d="M 211.328,4.82422 260.48,53.9648 V 395.742 H 106.594 L 57.4531,346.602 H 211.328 Z" /><path
         id="path22"
         style="fill:#0084ff;fill-opacity:1;fill-rule:nonzero;stroke:none"
         d="m 211.328,346.602 49.152,49.14" /><path
         id="path24"
         style="fill:none;stroke:#ffffff;stroke-width:4;stroke-linecap:butt;stroke-linejoin:miter;stroke-miterlimit:4;stroke-dasharray:none;stroke-opacity:1"
         d="m 211.328,346.602 49.152,49.14" /><path
         id="path26"
         style="fill:none;stroke:#ffffff;stroke-width:4;stroke-linecap:butt;stroke-linejoin:miter;stroke-miterlimit:4;stroke-dasharray:none;stroke-opacity:1"
         d="m 70.7813,190.273 h 77.5 v 11.25 h -77.5 z" /><path
         id="path28"
         style="fill:none;stroke:#ffffff;stroke-width:4;stroke-linecap:butt;stroke-linejoin:miter;stroke-miterlimit:4;stroke-dasharray:none;stroke-opacity:1"
         d="m 70.7813,166.953 h 77.5 v 11.25 h -77.5 z" /><path
         id="path30"
         style="fill:none;stroke:#ffffff;stroke-width:4;stroke-linecap:butt;stroke-linejoin:miter;stroke-miterlimit:4;stroke-dasharray:none;stroke-opacity:1"
         d="m 70.7813,143.613 h 77.5 v 11.25 h -77.5 z" /><path
         id="path32"
         style="fill:none;stroke:#ffffff;stroke-width:4;stroke-linecap:butt;stroke-linejoin:miter;stroke-miterlimit:4;stroke-dasharray:none;stroke-opacity:1"
         d="m 70.7813,120.293 h 77.5 v 11.25 h -77.5 z" /><path
         id="path34"
         style="fill:none;stroke:#ffffff;stroke-width:4;stroke-linecap:butt;stroke-linejoin:miter;stroke-miterlimit:4;stroke-dasharray:none;stroke-opacity:1"
         d="m 70.7813,96.9531 h 77.5 v 11.25 h -77.5 z" /><path
         id="path36"
         style="fill:none;stroke:#ffffff;stroke-width:4;stroke-linecap:butt;stroke-linejoin:miter;stroke-miterlimit:4;stroke-dasharray:none;stroke-opacity:1"
         d="m 70.7813,73.6328 h 77.5 v 11.25 h -77.5 z" /><path
         id="path38"
         style="fill:none;stroke:#ffffff;stroke-width:4;stroke-linecap:butt;stroke-linejoin:miter;stroke-miterlimit:4;stroke-dasharray:none;stroke-opacity:1"
         d="m 70.7813,50.293 h 77.5 v 11.25 h -77.5 z" /><path
         id="path40"
         style="fill:none;stroke:#ffffff;stroke-width:4;stroke-linecap:butt;stroke-linejoin:miter;stroke-miterlimit:4;stroke-dasharray:none;stroke-opacity:1"
         d="m 70.7813,26.9727 h 77.5 v 11.25 h -77.5 z" /><path
         id="path42"
         style="fill:#0084ff;fill-opacity:1;fill-rule:nonzero;stroke:none"
         d="m 157.617,306.816 c 0,-15.918 -34.844,-28.808 -77.8123,-28.808 -42.9688,0 -77.80079,12.89 -77.80079,28.808 V 240.41 c 0,-15.898 34.83199,-28.808 77.80079,-28.808 42.9683,0 77.8123,12.91 77.8123,28.808 v 66.406" /><path
         id="path44"
         style="fill:none;stroke:#ffffff;stroke-width:4;stroke-linecap:butt;stroke-linejoin:miter;stroke-miterlimit:4;stroke-dasharray:none;stroke-opacity:1"
         d="m 157.617,306.816 c 0,-15.918 -34.844,-28.808 -77.8123,-28.808 -42.9688,0 -77.80079,12.89 -77.80079,28.808 V 240.41 c 0,-15.898 34.83199,-28.808 77.80079,-28.808 42.9683,0 77.8123,12.91 77.8123,28.808 z" /><path
         id="path46"
         style="fill:#0084ff;fill-opacity:1;fill-rule:nonzero;stroke:none"
         d="m 79.8047,278.008 c 42.9683,0 77.8123,12.89 77.8123,28.808 0,15.918 -34.844,28.829 -77.8123,28.829 -42.9688,0 -77.80079,-12.911 -77.80079,-28.829 0,-15.918 34.83199,-28.808 77.80079,-28.808" /><path
         id="path48"
         style="fill:none;stroke:#ffffff;stroke-width:4;stroke-linecap:butt;stroke-linejoin:miter;stroke-miterlimit:4;stroke-dasharray:none;stroke-opacity:1"
         d="m 79.8047,278.008 c 42.9683,0 77.8123,12.89 77.8123,28.808 0,15.918 -34.844,28.829 -77.8123,28.829 -42.9688,0 -77.80079,-12.911 -77.80079,-28.829 0,-15.918 34.83199,-28.808 77.80079,-28.808 z" /><path
         id="path50"
         style="fill:#0084ff;fill-opacity:1;fill-rule:nonzero;stroke:none"
         d="m 240.949,246.816 c 0,-15.918 -34.844,-28.808 -77.812,-28.808 -42.969,0 -77.805,12.89 -77.805,28.808 V 180.41 c 0,-15.898 34.836,-28.808 77.805,-28.808 42.968,0 77.812,12.91 77.812,28.808 v 66.406" /><path
         id="path52"
         style="fill:none;stroke:#ffffff;stroke-width:4;stroke-linecap:butt;stroke-linejoin:miter;stroke-miterlimit:4;stroke-dasharray:none;stroke-opacity:1"
         d="m 240.949,246.816 c 0,-15.918 -34.844,-28.808 -77.812,-28.808 -42.969,0 -77.805,12.89 -77.805,28.808 V 180.41 c 0,-15.898 34.836,-28.808 77.805,-28.808 42.968,0 77.812,12.91 77.812,28.808 z" /><path
         id="path54"
         style="fill:#0084ff;fill-opacity:1;fill-rule:nonzero;stroke:none"
         d="m 163.137,218.008 c 42.968,0 77.812,12.89 77.812,28.808 0,15.918 -34.844,28.829 -77.812,28.829 -42.969,0 -77.805,-12.911 -77.805,-28.829 0,-15.918 34.836,-28.808 77.805,-28.808" /><path
         id="path56"
         style="fill:none;stroke:#ffffff;stroke-width:4;stroke-linecap:butt;stroke-linejoin:miter;stroke-miterlimit:4;stroke-dasharray:none;stroke-opacity:1"
         d="m 163.137,218.008 c 42.968,0 77.812,12.89 77.812,28.808 0,15.918 -34.844,28.829 -77.812,28.829 -42.969,0 -77.805,-12.911 -77.805,-28.829 0,-15.918 34.836,-28.808 77.805,-28.808 z" /></g></g></svg>