<?xml version="1.0" encoding="UTF-8" standalone="no"?>
<svg
   xmlns:dc="http://purl.org/dc/elements/1.1/"
   xmlns:cc="http://creativecommons.org/ns#"
   xmlns:rdf="http://www.w3.org/1999/02/22-rdf-syntax-ns#"
   xmlns:svg="http://www.w3.org/2000/svg"
   xmlns="http://www.w3.org/2000/svg"
   viewBox="0 0 51.066666 33.986668"
   height="33.986668"
   width="51.066666"
   xml:space="preserve"
   id="svg2"
   version="1.1"><metadata
     id="metadata8"><rdf:RDF><cc:Work
         rdf:about=""><dc:format>image/svg+xml</dc:format><dc:type
           rdf:resource="http://purl.org/dc/dcmitype/StillImage" /></cc:Work></rdf:RDF></metadata><defs
     id="defs6" /><g
     transform="matrix(1.3333333,0,0,-1.3333333,0,33.986667)"
     id="g10"><g
       transform="scale(0.1)"
       id="g12"><path
         id="path14"
         style="fill:#0084ff;fill-opacity:1;fill-rule:nonzero;stroke:none"
         d="M 5.65234,6.47656 H 338.813 V 200.988 H 5.65234 V 6.47656" /><path
         id="path16"
         style="fill:none;stroke:#ffffff;stroke-width:4;stroke-linecap:butt;stroke-linejoin:miter;stroke-miterlimit:4;stroke-dasharray:none;stroke-opacity:1"
         d="M 5.65234,6.47656 H 338.813 V 200.988 H 5.65234 Z" /><path
         id="path18"
         style="fill:#0084ff;fill-opacity:1;fill-rule:nonzero;stroke:none"
         d="M 378.715,64.8359 338.813,6.47656 V 200.988 l 39.902,48.379 V 64.8359" /><path
         id="path20"
         style="fill:none;stroke:#ffffff;stroke-width:4;stroke-linecap:butt;stroke-linejoin:miter;stroke-miterlimit:4;stroke-dasharray:none;stroke-opacity:1"
         d="M 378.715,64.8359 338.813,6.47656 V 200.988 l 39.902,48.379 z" /><path
         id="path22"
         style="fill:#0084ff;fill-opacity:1;fill-rule:nonzero;stroke:none"
         d="M 65.5078,249.367 H 378.715 L 338.813,200.988 H 5.65234 l 59.85546,48.379" /><path
         id="path24"
         style="fill:none;stroke:#ffffff;stroke-width:4;stroke-linecap:butt;stroke-linejoin:miter;stroke-miterlimit:4;stroke-dasharray:none;stroke-opacity:1"
         d="M 65.5078,249.367 H 378.715 L 338.813,200.988 H 5.65234 Z" /><g
         transform="scale(10)"
         id="g26"><text
           id="text30"
           style="font-variant:normal;font-weight:bold;font-size:7px;font-family:Helvetica;-inkscape-font-specification:Helvetica-Bold;writing-mode:lr-tb;fill:#ffffff;fill-opacity:1;fill-rule:nonzero;stroke:none"
           transform="matrix(1,0,0,-1,10.0867,12.4746)"><tspan
             id="tspan28"
             y="0"
             x="0 5.0539999 9.7229996">UPS</tspan></text>
</g><path
         id="path32"
         style="fill:#ffffff;fill-opacity:1;fill-rule:nonzero;stroke:none"
         d="m 170.23,64.7188 c 0.04,0.0195 43.243,2.371 43.243,2.371 0,0 -53.125,20.2305 -63.145,23.7735 0.664,0.2812 48.418,0.875 48.418,0.875 L 54.0078,131.695 149.164,96.7383 c -0.476,-0.211 -35,-2.5 -35,-2.5 0,0 35.149,-17.2031 44.934,-20.6641 -1.465,-0.6094 -32.016,-9.3359 -32.016,-9.3359 L 298.871,16.4375 170.23,64.7188" /></g></g></svg>