<?xml version="1.0" encoding="UTF-8" standalone="no"?>
<svg
   xmlns:dc="http://purl.org/dc/elements/1.1/"
   xmlns:cc="http://creativecommons.org/ns#"
   xmlns:rdf="http://www.w3.org/1999/02/22-rdf-syntax-ns#"
   xmlns:svg="http://www.w3.org/2000/svg"
   xmlns="http://www.w3.org/2000/svg"
   viewBox="0 0 50.279999 33.413334"
   height="33.413334"
   width="50.279999"
   xml:space="preserve"
   id="svg2"
   version="1.1"><metadata
     id="metadata8"><rdf:RDF><cc:Work
         rdf:about=""><dc:format>image/svg+xml</dc:format><dc:type
           rdf:resource="http://purl.org/dc/dcmitype/StillImage" /></cc:Work></rdf:RDF></metadata><defs
     id="defs6" /><g
     transform="matrix(1.3333333,0,0,-1.3333333,0,33.413333)"
     id="g10"><g
       transform="scale(0.1)"
       id="g12"><path
         id="path14"
         style="fill:#0084ff;fill-opacity:1;fill-rule:nonzero;stroke:none"
         d="M 5.11328,6.04688 V 177.883 H 308.844 V 6.04688 H 5.11328" /><path
         id="path16"
         style="fill:none;stroke:#ffffff;stroke-width:4;stroke-linecap:butt;stroke-linejoin:miter;stroke-miterlimit:4;stroke-dasharray:none;stroke-opacity:1"
         d="M 5.11328,6.04688 V 177.883 H 308.844 V 6.04688 Z" /><path
         id="path18"
         style="fill:#0084ff;fill-opacity:1;fill-rule:nonzero;stroke:none"
         d="M 309.066,5.1875 V 177.023 l 62.707,68.418 V 74.4648 L 309.066,5.1875" /><path
         id="path20"
         style="fill:none;stroke:#ffffff;stroke-width:4;stroke-linecap:butt;stroke-linejoin:miter;stroke-miterlimit:4;stroke-dasharray:none;stroke-opacity:1"
         d="M 309.066,5.1875 V 177.023 l 62.707,68.418 V 74.4648 Z" /><path
         id="path22"
         style="fill:#0084ff;fill-opacity:1;fill-rule:nonzero;stroke:none"
         d="M 309.086,178.02 H 5.22266 l 75.12504,67.382 292.0903,0.25 -63.352,-67.632" /><path
         id="path24"
         style="fill:none;stroke:#ffffff;stroke-width:4;stroke-linecap:butt;stroke-linejoin:miter;stroke-miterlimit:4;stroke-dasharray:none;stroke-opacity:1"
         d="M 309.086,178.02 H 5.22266 l 75.12504,67.382 292.0903,0.25 z" /><path
         id="path26"
         style="fill:#ffffff;fill-opacity:1;fill-rule:nonzero;stroke:none"
         d="m 68.9453,114.387 -54.3711,-0.039 v 10.156 l 54.3711,0.035 0.0195,15.852 31.4412,-20.938 -31.4412,-20.9452 -0.0195,15.8792" /><path
         id="path28"
         style="fill:#ffffff;fill-opacity:1;fill-rule:nonzero;stroke:none"
         d="m 266.637,141.211 -46.168,-0.027 v 8.632 l 46.168,0.028 v 13.476 l 26.726,-17.8 -26.726,-17.805 v 13.496" /><path
         id="path30"
         style="fill:#ffffff;fill-opacity:1;fill-rule:nonzero;stroke:none"
         d="m 266.637,87.3828 -46.168,-0.039 v 8.6328 l 46.168,0.0312 v 13.4762 l 26.726,-17.8043 -26.726,-17.793 v 13.4961" /><path
         id="path32"
         style="fill:#ffffff;fill-opacity:1;fill-rule:nonzero;stroke:none"
         d="m 266.637,33.5547 -46.168,-0.0469 v 8.6328 l 46.168,0.0391 V 55.6445 L 293.363,37.8516 266.637,20.0508 v 13.5039" /><path
         id="path34"
         style="fill:#ffffff;fill-opacity:1;fill-rule:nonzero;stroke:none"
         d="M 185.176,147.59 V 82.2461 H 108.027 V 147.59 h 77.149" /><path
         id="path36"
         style="fill:#ffffff;fill-opacity:1;fill-rule:nonzero;stroke:none"
         d="m 207.336,139.055 v -29.414 h -15.438 v 29.414 h 15.438" /><path
         id="path38"
         style="fill:none;stroke:#0084ff;stroke-width:2.17799997;stroke-linecap:butt;stroke-linejoin:miter;stroke-miterlimit:4;stroke-dasharray:none;stroke-opacity:1"
         d="m 207.336,139.055 v -29.414 h -15.438 v 29.414 z" /><path
         id="path40"
         style="fill:none;stroke:#ffffff;stroke-width:9.68000031;stroke-linecap:round;stroke-linejoin:miter;stroke-miterlimit:4;stroke-dasharray:none;stroke-opacity:1"
         d="m 118.051,40.3438 28.551,74.5782 29.527,-74.7657" /><path
         id="path42"
         style="fill:none;stroke:#ffffff;stroke-width:15;stroke-linecap:round;stroke-linejoin:miter;stroke-miterlimit:4;stroke-dasharray:none;stroke-opacity:1"
         d="m 168.199,123.535 h 23.145" /></g></g></svg>