<?xml version="1.0" encoding="UTF-8" standalone="no"?>
<svg
   xmlns:dc="http://purl.org/dc/elements/1.1/"
   xmlns:cc="http://creativecommons.org/ns#"
   xmlns:rdf="http://www.w3.org/1999/02/22-rdf-syntax-ns#"
   xmlns:svg="http://www.w3.org/2000/svg"
   xmlns="http://www.w3.org/2000/svg"
   viewBox="0 0 49.360001 22.066668"
   height="22.066668"
   width="49.360001"
   xml:space="preserve"
   id="svg2"
   version="1.1"><metadata
     id="metadata8"><rdf:RDF><cc:Work
         rdf:about=""><dc:format>image/svg+xml</dc:format><dc:type
           rdf:resource="http://purl.org/dc/dcmitype/StillImage" /></cc:Work></rdf:RDF></metadata><defs
     id="defs6" /><g
     transform="matrix(1.3333333,0,0,-1.3333333,0,22.066667)"
     id="g10"><g
       transform="scale(0.1)"
       id="g12"><path
         id="path14"
         style="fill:#999999;fill-opacity:1;fill-rule:nonzero;stroke:none"
         d="M 6.83203,103.328 83.7695,160.195 H 364.824 L 308.887,103.328 H 6.83203" /><path
         id="path16"
         style="fill:none;stroke:#ffffff;stroke-width:4.5;stroke-linecap:butt;stroke-linejoin:miter;stroke-miterlimit:4;stroke-dasharray:none;stroke-opacity:1"
         d="M 6.83203,103.328 83.7695,160.195 H 364.824 l -55.937,-56.867 z" /><path
         id="path18"
         style="fill:#999999;fill-opacity:1;fill-rule:nonzero;stroke:none"
         d="M 308.887,5.48047 364.824,62.1563 V 160.02 L 308.887,103.328 V 5.48047" /><path
         id="path20"
         style="fill:none;stroke:#ffffff;stroke-width:4.5;stroke-linecap:butt;stroke-linejoin:miter;stroke-miterlimit:4;stroke-dasharray:none;stroke-opacity:1"
         d="M 308.887,5.48047 364.824,62.1563 V 160.02 l -55.937,-56.692 z" /><path
         id="path22"
         style="fill:#999999;fill-opacity:1;fill-rule:nonzero;stroke:none"
         d="m 7.25781,5.39063 h 301.629 v 97.9375 H 7.25781 Z" /><path
         id="path24"
         style="fill:none;stroke:#ffffff;stroke-width:4.5;stroke-linecap:butt;stroke-linejoin:miter;stroke-miterlimit:4;stroke-dasharray:none;stroke-opacity:1"
         d="m 7.25781,5.39063 h 301.629 v 97.9375 H 7.25781 Z" /><path
         id="path26"
         style="fill:none;stroke:#ffffff;stroke-width:4.5;stroke-linecap:round;stroke-linejoin:miter;stroke-miterlimit:1;stroke-dasharray:none;stroke-opacity:1"
         d="m 284.895,53.6133 c 0,0 -19.571,-50.31252 -43.098,0.1484 -23.504,50.4293 -43.113,0.1055 -43.113,0.1055 0,0 -19.551,-50.34376 -43.059,0.0976 -23.5,50.4372 -42.996,-0.3125 -42.996,-0.3125 0,0 -19.5196,-50.35152 -43.0431,0.1094 -23.5078,50.4293 -43.0078,0.1446 -43.0078,0.1446" /><path
         id="path28"
         style="fill:none;stroke:#ffffff;stroke-width:9;stroke-linecap:round;stroke-linejoin:miter;stroke-miterlimit:1;stroke-dasharray:none;stroke-opacity:1"
         d="m 26.5781,53.6133 c 0,0 19.5742,-50.31252 43.0938,0.1484 23.5078,50.4293 43.1131,0.1055 43.1131,0.1055 0,0 19.555,-50.34376 43.055,0.0976 23.508,50.4372 43,-0.3125 43,-0.3125 0,0 19.519,-50.35152 43.047,0.1094 23.504,50.4293 43.008,0.1446 43.008,0.1446" /><path
         id="path30"
         style="fill:none;stroke:#231f20;stroke-width:4.5;stroke-linecap:round;stroke-linejoin:miter;stroke-miterlimit:1;stroke-dasharray:none;stroke-opacity:1"
         d="m 289.426,53.6055 c 0,0 -19.571,-50.30472 -43.098,0.1562 -23.504,50.4293 -43.113,0.1055 -43.113,0.1055 0,0 -19.551,-50.35157 -43.059,0.0859 -23.5,50.4489 -42.996,-0.3086 -42.996,-0.3086 0,0 -19.5194,-50.34372 -43.0428,0.1172 -23.5078,50.4293 -43.0078,0.1367 -43.0078,0.1367" /><path
         id="path32"
         style="fill:none;stroke:#231f20;stroke-width:9;stroke-linecap:round;stroke-linejoin:miter;stroke-miterlimit:1;stroke-dasharray:none;stroke-opacity:1"
         d="m 31.1094,53.6055 c 0,0 19.5703,-50.30472 43.0937,0.1562 23.5078,50.4293 43.1129,0.1055 43.1129,0.1055 0,0 19.555,-50.35157 43.055,0.0859 23.508,50.4489 43,-0.3086 43,-0.3086 0,0 19.52,-50.34372 43.047,0.1172 23.504,50.4293 43.008,0.1367 43.008,0.1367" /><path
         id="path34"
         style="fill:none;stroke:#ffffff;stroke-width:4.5;stroke-linecap:round;stroke-linejoin:miter;stroke-miterlimit:1;stroke-dasharray:none;stroke-opacity:1"
         d="m 284.895,53.6133 c 0,0 -19.571,-50.31252 -43.098,0.1484 -23.504,50.4293 -43.113,0.1055 -43.113,0.1055 0,0 -19.551,-50.34376 -43.059,0.0976 -23.5,50.4372 -42.996,-0.3125 -42.996,-0.3125 0,0 -19.5196,-50.35152 -43.0431,0.1094 -23.5078,50.4293 -43.0078,0.1446 -43.0078,0.1446" /><path
         id="path36"
         style="fill:none;stroke:#ffffff;stroke-width:9;stroke-linecap:round;stroke-linejoin:miter;stroke-miterlimit:1;stroke-dasharray:none;stroke-opacity:1"
         d="m 26.5781,53.6133 c 0,0 19.5742,-50.31252 43.0938,0.1484 23.5078,50.4293 43.1131,0.1055 43.1131,0.1055 0,0 19.555,-50.34376 43.055,0.0976 23.508,50.4372 43,-0.3125 43,-0.3125 0,0 19.519,-50.35152 43.047,0.1094 23.504,50.4293 43.008,0.1446 43.008,0.1446" /><path
         id="path38"
         style="fill:none;stroke:#231f20;stroke-width:4.5;stroke-linecap:round;stroke-linejoin:miter;stroke-miterlimit:1;stroke-dasharray:none;stroke-opacity:1"
         d="m 289.426,53.6055 c 0,0 -19.571,-50.30472 -43.098,0.1562 -23.504,50.4293 -43.113,0.1055 -43.113,0.1055 0,0 -19.551,-50.35157 -43.059,0.0859 -23.5,50.4489 -42.996,-0.3086 -42.996,-0.3086 0,0 -19.5194,-50.34372 -43.0428,0.1172 -23.5078,50.4293 -43.0078,0.1367 -43.0078,0.1367" /><path
         id="path40"
         style="fill:none;stroke:#231f20;stroke-width:9;stroke-linecap:round;stroke-linejoin:miter;stroke-miterlimit:1;stroke-dasharray:none;stroke-opacity:1"
         d="m 31.1094,53.6055 c 0,0 19.5703,-50.30472 43.0937,0.1562 23.5078,50.4293 43.1129,0.1055 43.1129,0.1055 0,0 19.555,-50.35157 43.055,0.0859 23.508,50.4489 43,-0.3086 43,-0.3086 0,0 19.52,-50.34372 43.047,0.1172 23.504,50.4293 43.008,0.1367 43.008,0.1367" /><path
         id="path42"
         style="fill:none;stroke:#ffffff;stroke-width:4.5;stroke-linecap:round;stroke-linejoin:miter;stroke-miterlimit:1;stroke-dasharray:none;stroke-opacity:1"
         d="m 284.895,53.6133 c 0,0 -19.571,-50.31252 -43.098,0.1484 -23.504,50.4293 -43.113,0.1055 -43.113,0.1055 0,0 -19.551,-50.34376 -43.059,0.0976 -23.5,50.4372 -42.996,-0.3125 -42.996,-0.3125 0,0 -19.5196,-50.35152 -43.0431,0.1094 -23.5078,50.4293 -43.0078,0.1446 -43.0078,0.1446" /><path
         id="path44"
         style="fill:none;stroke:#ffffff;stroke-width:9;stroke-linecap:round;stroke-linejoin:miter;stroke-miterlimit:1;stroke-dasharray:none;stroke-opacity:1"
         d="m 26.5781,53.6133 c 0,0 19.5742,-50.31252 43.0938,0.1484 23.5078,50.4293 43.1131,0.1055 43.1131,0.1055 0,0 19.555,-50.34376 43.055,0.0976 23.508,50.4372 43,-0.3125 43,-0.3125 0,0 19.519,-50.35152 43.047,0.1094 23.504,50.4293 43.008,0.1446 43.008,0.1446" /></g></g></svg>