<?xml version="1.0" standalone="no"?>
<!DOCTYPE svg PUBLIC "-//W3C//DTD SVG 20010904//EN"
 "http://www.w3.org/TR/2001/REC-SVG-20010904/DTD/svg10.dtd">
<svg version="1.0" xmlns="http://www.w3.org/2000/svg"
 width="256.000000pt" height="256.000000pt" viewBox="0 0 256.000000 256.000000"
 preserveAspectRatio="xMidYMid meet">
<metadata>
Created by potrace 1.15, written by Peter Selinger 2001-2017
</metadata>
<g transform="translate(0.000000,256.000000) scale(0.100000,-0.100000)"
fill="#999999">
<path fill="#ffffff" d="M680 2554 c-8 -3 -44 -17 -80 -31 -68 -27 -63 -22 -485 -438 -34 -34
-73 -84 -88 -116 l-27 -55 2 -785 3 -784 33 -67 c59 -121 165 -216 287 -258
56 -19 84 -20 828 -20 l769 0 67 32 c47 22 84 51 128 97 34 36 134 140 222
231 134 139 164 175 188 230 l28 65 3 778 2 778 -30 63 c-55 117 -179 227
-287 256 -26 7 -52 17 -58 21 -9 9 -1478 11 -1505 3z"/>
<path d="M1986 2391 l-147 -147 58 -18 c155 -48 274 -165 327 -321 l22 -65
148 149 149 149 -6 38 c-9 52 -58 150 -102 201 -50 59 -120 102 -219 133 l-84
27 -146 -146z"/>
<path d="M625 2505 c-50 -21 -82 -47 -194 -159 l-135 -135 61 16 c58 14 66 20
204 159 79 79 139 144 134 144 -6 0 -37 -12 -70 -25z"/>
<path d="M615 2390 l-140 -140 660 0 660 0 140 140 140 140 -660 0 -660 0
-140 -140z"/>
<path d="M380 2204 c-79 -17 -171 -61 -226 -108 -51 -43 -106 -126 -122 -182
-9 -30 -12 -240 -12 -772 0 -700 1 -733 20 -794 35 -115 119 -220 215 -271 17
-9 60 -25 96 -37 64 -20 80 -20 815 -18 l749 3 65 32 c121 59 200 150 234 268
16 55 17 120 13 770 -3 761 -3 762 -56 870 -58 118 -146 192 -277 233 -70 22
-76 22 -760 21 -553 0 -702 -3 -754 -15z"/>
<path  d="M2393 1938 l-133 -133 0 -660 0 -660 135 135 135 135 -2 658 -3 657
-132 -132z"/>
<path d="M2394 568 c-117 -118 -132 -138 -138 -175 -3 -23 -9 -50 -12 -60 -4
-10 48 36 114 101 95 94 127 132 147 178 15 32 25 65 23 74 -2 9 -52 -35 -134
-118z"/>
<path fill="#ffffff" d="M1002 1803 c-5 -10 -13 -45 -16 -78 -12 -97 -13 -100 -66 -122 l-49
-21 -72 54 c-40 30 -79 54 -87 54 -20 0 -162 -140 -162 -160 0 -9 25 -48 54
-88 l55 -70 -21 -51 c-21 -49 -21 -50 -83 -60 -34 -6 -73 -11 -86 -11 -14 0
-30 -5 -37 -12 -17 -17 -16 -222 1 -235 6 -6 51 -15 98 -22 l86 -13 21 -50 21
-50 -54 -72 c-30 -40 -55 -79 -55 -87 0 -20 142 -159 161 -159 9 0 47 22 85
50 38 27 73 50 79 50 5 0 29 -8 52 -17 46 -19 48 -24 59 -123 3 -36 11 -71 17
-77 13 -18 221 -18 235 0 5 6 15 50 22 97 l11 85 42 18 c23 9 48 17 55 17 7 0
43 -23 79 -50 36 -28 73 -50 82 -50 21 0 161 140 161 161 0 9 -23 47 -52 84
l-51 68 18 53 18 52 86 12 c47 7 92 17 99 22 16 14 17 219 0 236 -7 7 -23 12
-37 12 -13 0 -52 5 -85 11 -59 10 -62 12 -79 52 -9 23 -17 48 -17 54 0 7 23
42 50 78 28 36 50 74 50 83 0 20 -139 162 -159 162 -8 0 -47 -25 -87 -55 l-72
-54 -50 21 -50 21 -13 86 c-7 47 -16 92 -22 99 -6 8 -43 12 -118 12 -93 0
-110 -2 -117 -17z m229 -481 c34 -17 65 -44 84 -71 26 -37 30 -53 33 -120 5
-109 -24 -163 -118 -220 -49 -29 -153 -29 -216 0 -104 50 -155 195 -105 304
20 44 78 100 125 121 54 23 137 18 197 -14z"/>
</g>
</svg>
