<?xml version="1.0" standalone="no"?>
<!DOCTYPE svg PUBLIC "-//W3C//DTD SVG 20010904//EN"
 "http://www.w3.org/TR/2001/REC-SVG-20010904/DTD/svg10.dtd">
<svg version="1.0" xmlns="http://www.w3.org/2000/svg"
 width="516.000000pt" height="516.000000pt" viewBox="0 0 516.000000 516.000000"
 style="background-color: #fff"
 preserveAspectRatio="xMidYMid meet">
<metadata>
Created by potrace 1.10, written by Peter Selinger 2001-2011
</metadata>
<g transform="translate(0.000000,516.000000) scale(0.100000,-0.100000)"
fill="#999999" stroke="none">
<path d="M2480 5130 c0 -27 -3 -30 -32 -30 -71 -2 -142 -11 -154 -21 -7 -6
-34 -14 -60 -17 -40 -6 -49 -11 -54 -32 -5 -20 -13 -26 -43 -28 -31 -3 -37 -7
-37 -27 0 -18 -7 -25 -37 -32 -29 -7 -38 -14 -37 -29 2 -14 -12 -26 -50 -45
-35 -18 -52 -33 -54 -49 -2 -12 -12 -25 -23 -27 -11 -3 -19 -14 -19 -27 0 -12
-13 -33 -28 -46 -21 -19 -31 -39 -38 -80 l-9 -55 -75 0 c-71 0 -75 1 -73 21 3
31 -24 34 -267 34 -223 0 -248 -3 -228 -27 18 -22 -7 -33 -79 -33 -60 0 -63
-1 -63 -24 0 -20 -6 -24 -41 -29 -23 -3 -45 -10 -48 -15 -3 -5 -19 -13 -36
-19 -19 -6 -31 -17 -33 -31 -2 -14 -13 -23 -33 -27 -22 -5 -29 -12 -29 -30 0
-17 -8 -26 -31 -34 -22 -8 -29 -15 -25 -28 4 -13 -6 -25 -34 -43 -26 -15 -40
-31 -40 -45 0 -11 -9 -26 -20 -33 -11 -7 -20 -20 -20 -30 0 -10 -11 -29 -25
-42 -14 -13 -25 -33 -25 -46 0 -12 -7 -24 -15 -28 -9 -3 -15 -18 -15 -36 0
-16 -4 -30 -10 -30 -5 0 -10 -10 -10 -22 0 -13 -9 -36 -20 -53 -12 -18 -20
-47 -20 -75 0 -25 -7 -54 -15 -64 -9 -12 -15 -42 -15 -75 0 -31 -5 -76 -11
-101 -14 -54 -12 -191 1 -204 6 -6 10 -20 10 -33 0 -22 -7 -26 -65 -36 -13 -2
-19 -10 -18 -23 2 -16 -6 -22 -40 -30 -30 -6 -42 -14 -42 -27 0 -15 -42 -46
-88 -63 -9 -3 -17 -16 -17 -29 0 -13 -9 -26 -24 -33 -18 -8 -23 -16 -19 -31 3
-14 0 -23 -11 -27 -9 -3 -16 -16 -16 -29 0 -13 -11 -33 -25 -46 -14 -14 -25
-35 -25 -51 0 -16 -4 -28 -10 -28 -5 0 -10 -12 -10 -28 0 -15 -6 -37 -14 -48
-8 -11 -18 -47 -21 -80 -11 -96 -15 -597 -5 -634 5 -19 15 -70 22 -113 7 -46
20 -88 30 -99 10 -12 18 -31 18 -43 0 -13 7 -28 15 -35 8 -7 15 -23 15 -36 0
-14 8 -25 20 -29 14 -5 19 -12 15 -25 -8 -25 70 -70 123 -70 l39 0 2 -117 c2
-131 7 -174 27 -212 8 -14 14 -36 14 -48 0 -12 5 -25 10 -28 6 -3 10 -16 10
-28 0 -13 14 -37 30 -55 17 -18 30 -42 30 -53 0 -11 7 -22 15 -25 8 -4 15 -17
15 -30 0 -14 7 -27 15 -30 8 -4 15 -16 15 -28 0 -13 14 -30 35 -45 19 -13 35
-32 35 -43 0 -10 11 -24 25 -30 15 -7 25 -20 25 -32 0 -16 14 -27 55 -46 41
-19 55 -30 55 -46 0 -17 8 -23 36 -28 29 -6 35 -11 32 -29 -3 -18 4 -23 40
-30 36 -7 43 -12 40 -30 -3 -19 3 -22 45 -29 27 -3 55 -12 63 -19 8 -7 43 -15
77 -18 57 -6 62 -8 59 -29 -3 -22 -2 -22 121 -22 68 0 127 3 130 6 3 4 2 15
-3 24 -8 16 -3 18 50 22 36 3 66 11 78 21 23 21 82 23 82 3 0 -7 6 -19 14 -26
8 -6 13 -17 10 -24 -3 -8 2 -20 10 -29 9 -9 13 -22 10 -30 -3 -10 3 -20 16
-27 13 -7 19 -17 15 -29 -3 -12 7 -26 35 -47 24 -18 40 -37 40 -50 0 -15 8
-24 25 -28 18 -5 25 -13 25 -30 0 -19 7 -26 30 -31 16 -4 30 -11 30 -15 0 -5
15 -12 34 -16 25 -4 36 -12 38 -27 2 -16 13 -23 46 -30 36 -7 42 -12 42 -33 0
-22 4 -24 48 -24 54 0 67 -7 67 -35 0 -17 8 -20 60 -23 33 -1 75 -10 94 -19
24 -11 77 -17 184 -21 135 -4 150 -7 154 -23 5 -18 24 -19 369 -19 348 0 364
1 364 19 0 16 11 19 85 23 48 3 92 12 101 19 9 7 34 15 57 19 35 5 42 9 40 26
-2 16 6 24 30 30 22 7 33 17 35 32 3 16 12 25 33 29 22 4 29 11 29 29 0 14 8
25 20 29 11 3 20 10 20 14 0 4 12 13 26 19 18 9 24 17 19 31 -4 14 0 21 15 26
12 4 20 15 20 30 l0 23 203 4 c168 3 207 6 234 21 18 9 48 17 67 17 30 0 35 3
38 28 3 23 8 27 41 30 31 3 37 7 37 26 0 17 8 25 33 32 20 6 33 17 35 30 2 11
15 26 30 32 60 28 72 37 72 59 0 13 8 24 20 28 13 4 20 15 20 30 0 15 7 26 20
30 12 4 20 15 20 29 0 12 13 33 30 46 16 14 29 35 30 46 0 12 7 27 15 34 8 7
14 18 13 24 -3 19 12 54 27 60 9 3 15 18 15 35 0 16 4 32 9 35 5 4 12 30 16
59 4 28 14 61 21 72 8 11 14 43 14 71 0 28 7 65 16 83 14 28 15 62 11 234 -2
111 -8 213 -12 227 -18 62 -18 93 1 107 10 7 28 13 41 13 17 0 23 6 23 23 0
12 9 28 20 35 11 7 20 21 20 31 0 10 7 24 15 31 9 7 13 20 10 27 -3 8 4 26 15
40 11 14 20 38 20 52 0 15 5 32 11 38 9 9 12 42 18 171 1 21 6 32 16 32 13 0
15 20 15 120 0 100 -2 120 -15 120 -9 0 -15 9 -15 23 -2 69 -13 173 -20 182
-4 6 -11 34 -15 64 -4 30 -12 61 -19 68 -31 34 -36 44 -36 62 0 11 -4 23 -10
26 -5 3 -10 17 -10 30 0 12 -7 26 -16 29 -10 4 -14 14 -11 26 4 14 -2 24 -16
32 -12 6 -28 17 -35 25 -7 7 -20 13 -28 13 -8 0 -14 10 -14 25 0 25 -3 26 -55
29 -14 1 -19 7 -18 21 1 11 -5 24 -13 28 -18 10 -18 56 1 81 9 12 15 42 15 77
0 32 5 61 10 64 6 3 8 23 5 43 -2 20 -7 99 -11 175 -4 88 -11 142 -18 150 -7
7 -16 37 -20 66 -4 30 -13 63 -21 74 -7 11 -12 24 -9 31 2 6 -9 26 -26 44 -16
18 -30 42 -30 53 0 11 -7 22 -15 25 -8 4 -15 16 -15 29 0 14 -12 31 -35 46
-19 13 -35 32 -35 42 0 9 -11 23 -25 29 -16 7 -25 19 -25 33 0 17 -8 24 -31
29 -24 5 -30 10 -27 28 2 17 -4 23 -32 31 -19 5 -38 13 -41 19 -3 5 -25 12
-47 15 -34 5 -41 9 -39 26 2 19 -5 22 -63 30 -71 9 -82 14 -60 27 31 19 -10
25 -208 30 -201 5 -207 6 -207 26 0 22 -50 74 -72 74 -10 0 -12 6 -8 20 5 15
0 23 -19 32 -16 7 -26 20 -26 32 -1 15 -14 28 -48 44 -26 12 -53 22 -59 22 -7
0 -13 11 -13 24 0 20 -6 24 -40 30 -37 6 -40 8 -34 31 6 23 4 25 -32 25 -48 0
-63 9 -61 35 2 17 -5 20 -48 23 -27 2 -57 10 -66 18 -10 9 -51 17 -105 22 -88
7 -89 7 -92 35 l-3 27 -300 0 -299 0 0 -30z m559 -54 c15 -8 66 -18 114 -22
80 -6 86 -8 84 -28 -2 -18 4 -21 38 -24 67 -4 83 -11 87 -35 2 -15 11 -23 28
-25 59 -6 70 -12 67 -34 -1 -17 5 -23 29 -28 17 -4 42 -14 55 -23 13 -10 31
-17 41 -17 12 0 18 -8 18 -24 0 -19 7 -26 30 -31 24 -5 29 -11 25 -24 -4 -13
7 -25 40 -46 25 -16 45 -37 45 -46 0 -9 11 -24 25 -33 14 -9 22 -22 19 -30
-10 -26 19 -30 173 -27 170 3 197 -1 188 -29 -6 -20 5 -24 107 -35 32 -4 60
-10 63 -15 3 -5 26 -12 51 -16 38 -5 44 -9 39 -25 -7 -20 -3 -22 47 -33 21 -5
27 -12 25 -28 -1 -16 5 -23 32 -30 26 -7 32 -13 28 -29 -4 -15 6 -25 44 -46
36 -21 47 -32 43 -45 -3 -11 3 -22 15 -30 12 -7 21 -22 21 -33 0 -11 12 -31
25 -44 14 -13 25 -34 25 -46 0 -13 5 -27 10 -30 6 -3 10 -17 10 -31 0 -13 5
-24 10 -24 6 0 10 -15 10 -34 0 -19 8 -42 17 -52 16 -15 18 -42 17 -243 0
-190 -2 -230 -16 -251 -21 -33 -31 -119 -17 -136 6 -8 20 -14 30 -14 10 0 19
-9 21 -22 2 -15 13 -24 37 -31 18 -4 40 -15 48 -23 8 -8 21 -14 29 -14 8 0 14
-10 14 -24 0 -13 7 -26 15 -30 8 -3 15 -14 15 -24 0 -11 7 -25 15 -32 8 -7 15
-22 15 -34 0 -12 9 -29 20 -39 12 -10 20 -29 20 -47 0 -16 4 -30 9 -30 4 0 11
-19 14 -41 3 -23 10 -45 15 -48 5 -3 12 -51 16 -106 4 -55 10 -104 14 -110 10
-15 10 -128 1 -145 -5 -8 -11 -59 -14 -112 -4 -54 -10 -98 -15 -98 -4 0 -11
-25 -15 -56 -5 -39 -14 -65 -30 -82 -13 -14 -21 -31 -18 -39 3 -8 -4 -21 -15
-29 -11 -8 -22 -24 -24 -37 -2 -17 -11 -23 -38 -27 -27 -4 -35 -10 -33 -24 1
-11 -7 -26 -17 -35 -17 -15 -17 -20 1 -121 23 -135 25 -363 4 -443 -8 -32 -15
-77 -15 -100 0 -23 -7 -51 -15 -61 -8 -11 -15 -35 -15 -53 0 -18 -4 -33 -9
-33 -5 0 -12 -23 -16 -52 -5 -37 -16 -60 -36 -82 -18 -20 -27 -38 -23 -49 3
-10 -1 -19 -10 -23 -9 -3 -16 -16 -16 -28 0 -13 -14 -34 -35 -52 -19 -16 -33
-35 -30 -41 2 -7 -7 -20 -21 -29 -17 -11 -23 -22 -19 -35 5 -14 0 -20 -19 -25
-18 -4 -26 -13 -26 -28 -1 -15 -14 -27 -48 -44 -26 -12 -53 -22 -59 -22 -7 0
-13 -11 -13 -24 0 -21 -6 -26 -42 -33 -37 -7 -43 -12 -43 -33 0 -24 -4 -25
-70 -30 -62 -4 -70 -7 -70 -25 0 -19 -8 -20 -195 -25 -194 -5 -195 -5 -223
-31 -16 -16 -25 -33 -21 -42 3 -10 -2 -18 -15 -22 -13 -4 -21 -15 -21 -29 0
-17 -12 -28 -50 -47 -36 -17 -49 -30 -50 -45 0 -22 -17 -34 -50 -34 -13 0 -20
-9 -22 -27 -3 -26 -7 -28 -53 -33 -41 -4 -51 -9 -53 -26 -3 -19 -12 -22 -85
-29 -45 -4 -88 -12 -96 -18 -10 -9 -97 -12 -300 -11 -370 1 -380 1 -395 13 -7
6 -74 13 -149 17 -131 7 -158 13 -119 29 27 12 -20 23 -108 24 -86 1 -111 11
-91 35 14 17 8 20 -81 31 -41 5 -47 9 -45 27 2 17 -5 23 -33 29 -19 4 -49 15
-65 23 -17 9 -38 16 -48 16 -14 0 -17 5 -12 20 5 15 -1 22 -29 34 -23 10 -34
20 -30 29 3 8 -12 24 -41 42 -31 20 -45 36 -45 51 0 14 -8 25 -20 29 -13 4
-20 15 -20 31 0 13 -4 24 -10 24 -5 0 -10 10 -10 23 -1 12 -14 37 -30 56 -16
19 -27 38 -24 43 3 5 0 15 -6 23 -6 8 -9 22 -6 32 8 26 -8 45 -35 41 -18 -2
-25 -11 -29 -33 -4 -21 -12 -31 -30 -35 -15 -3 -26 -14 -28 -26 -3 -18 -15
-22 -104 -33 -81 -10 -126 -10 -230 0 -116 12 -129 15 -125 31 5 19 -9 25 -73
30 -30 3 -35 7 -38 30 -3 22 -9 27 -43 33 -33 6 -39 11 -39 31 0 13 -6 24 -12
24 -29 -1 -107 46 -108 63 0 11 -12 23 -30 30 -21 8 -30 18 -30 34 0 13 -8 24
-20 28 -11 3 -20 10 -20 15 0 5 -9 12 -20 15 -13 4 -20 15 -20 30 0 15 -7 26
-20 30 -13 4 -20 15 -20 31 0 14 -7 27 -15 30 -8 4 -15 16 -15 28 0 11 -12 32
-25 45 -14 13 -25 34 -25 46 0 13 -4 27 -10 30 -5 3 -10 17 -10 31 0 13 -4 24
-10 24 -5 0 -12 17 -15 38 -3 20 -10 45 -16 54 -5 10 -9 71 -9 135 0 151 -3
163 -44 163 -17 0 -48 3 -69 6 -31 6 -36 10 -32 25 5 14 -1 22 -19 31 -17 7
-26 19 -26 34 0 12 -7 24 -15 28 -8 3 -15 17 -15 31 0 14 -4 25 -10 25 -5 0
-10 7 -10 15 0 9 -7 18 -16 22 -8 3 -13 11 -10 19 5 12 -8 61 -24 94 -4 9 -11
45 -15 80 -4 36 -12 71 -19 79 -7 9 -12 83 -14 208 -3 159 -1 198 11 217 13
19 25 81 32 157 0 9 11 32 23 52 12 21 19 43 16 51 -3 8 -1 17 5 21 6 3 11 16
11 29 0 12 14 35 30 51 17 16 30 37 30 47 0 10 7 21 15 24 8 4 15 16 15 28 0
15 9 27 25 34 14 6 25 20 25 30 0 17 28 33 100 57 23 8 36 19 40 36 5 21 12
24 54 27 l48 3 -3 132 c-3 151 10 357 22 357 8 0 17 38 23 91 1 14 12 42 23
62 12 20 25 56 28 81 4 24 13 47 21 50 8 3 14 16 14 30 0 15 12 34 30 49 17
14 30 34 30 44 0 10 9 24 20 31 11 7 20 21 20 32 0 11 4 20 8 20 5 0 19 9 32
20 13 11 29 20 37 20 7 0 13 11 13 24 0 19 7 26 30 31 23 5 30 12 30 31 0 18
7 25 28 30 48 10 51 12 45 33 -4 18 -1 21 23 21 16 0 43 8 59 17 17 9 59 19
95 22 57 5 65 9 68 27 4 28 39 34 202 34 163 0 198 -6 202 -34 3 -19 11 -22
80 -26 42 -3 83 -11 90 -17 28 -29 68 1 59 45 -1 7 5 19 14 28 8 8 15 26 15
40 0 13 5 24 10 24 6 0 10 10 10 23 0 15 13 35 35 53 22 18 33 35 30 45 -4 12
3 20 25 28 23 8 30 15 26 28 -4 14 6 23 42 41 26 12 55 22 65 22 11 0 17 8 17
24 0 26 16 36 60 36 24 0 29 5 32 28 3 23 8 27 38 30 75 5 103 13 91 25 -20
20 -12 24 69 31 44 4 93 14 108 22 39 20 481 20 521 0z"/>
<path d="M3837 4546 c-6 -15 1 -26 15 -26 11 0 10 27 -1 34 -5 3 -11 0 -14 -8z"/>
<path d="M1555 4540 c-3 -5 3 -10 15 -10 12 0 18 5 15 10 -3 6 -10 10 -15 10
-5 0 -12 -4 -15 -10z"/>
</g>
</svg>
