<?xml version="1.0" encoding="UTF-8" standalone="no"?>
<svg
   xmlns:dc="http://purl.org/dc/elements/1.1/"
   xmlns:cc="http://creativecommons.org/ns#"
   xmlns:rdf="http://www.w3.org/1999/02/22-rdf-syntax-ns#"
   xmlns:svg="http://www.w3.org/2000/svg"
   xmlns="http://www.w3.org/2000/svg"
   viewBox="0 0 42.026669 33.613335"
   height="33.613335"
   width="42.026669"
   xml:space="preserve"
   id="svg2"
   version="1.1"><metadata
     id="metadata8"><rdf:RDF><cc:Work
         rdf:about=""><dc:format>image/svg+xml</dc:format><dc:type
           rdf:resource="http://purl.org/dc/dcmitype/StillImage" /></cc:Work></rdf:RDF></metadata><defs
     id="defs6" /><g
     transform="matrix(1.3333333,0,0,-1.3333333,0,33.613333)"
     id="g10"><g
       transform="scale(0.1)"
       id="g12"><path
         id="path14"
         style="fill:#999999;fill-opacity:1;fill-rule:nonzero;stroke:none"
         d="m 313.219,192.438 c 0,-31.833 -69.668,-57.633 -155.61,-57.633 C 71.668,134.805 2,160.605 2,192.438 V 59.6328 C 2,27.8047 71.668,2 157.609,2 c 85.942,0 155.61,25.8047 155.61,57.6328 V 192.438" /><path
         id="path16"
         style="fill:none;stroke:#ffffff;stroke-width:4;stroke-linecap:butt;stroke-linejoin:miter;stroke-miterlimit:4;stroke-dasharray:none;stroke-opacity:1"
         d="m 313.219,192.438 c 0,-31.833 -69.668,-57.633 -155.61,-57.633 C 71.668,134.805 2,160.605 2,192.438 V 59.6328 C 2,27.8047 71.668,2 157.609,2 c 85.942,0 155.61,25.8047 155.61,57.6328 z" /><path
         id="path18"
         style="fill:#999999;fill-opacity:1;fill-rule:nonzero;stroke:none"
         d="m 157.609,134.805 c 85.942,0 155.61,25.8 155.61,57.633 0,31.828 -69.668,57.632 -155.61,57.632 C 71.668,250.07 2,224.266 2,192.438 2,160.605 71.668,134.805 157.609,134.805" /><path
         id="path20"
         style="fill:none;stroke:#ffffff;stroke-width:4;stroke-linecap:butt;stroke-linejoin:miter;stroke-miterlimit:4;stroke-dasharray:none;stroke-opacity:1"
         d="m 157.609,134.805 c 85.942,0 155.61,25.8 155.61,57.633 0,31.828 -69.668,57.632 -155.61,57.632 C 71.668,250.07 2,224.266 2,192.438 2,160.605 71.668,134.805 157.609,134.805 Z" /></g></g></svg>