<?xml version="1.0" encoding="UTF-8" standalone="no"?>
<svg
   xmlns:dc="http://purl.org/dc/elements/1.1/"
   xmlns:cc="http://creativecommons.org/ns#"
   xmlns:rdf="http://www.w3.org/1999/02/22-rdf-syntax-ns#"
   xmlns:svg="http://www.w3.org/2000/svg"
   xmlns="http://www.w3.org/2000/svg"
   viewBox="0 0 41.799999 55.973331"
   height="55.973331"
   width="41.799999"
   xml:space="preserve"
   id="svg2"
   version="1.1"><metadata
     id="metadata8"><rdf:RDF><cc:Work
         rdf:about=""><dc:format>image/svg+xml</dc:format><dc:type
           rdf:resource="http://purl.org/dc/dcmitype/StillImage" /></cc:Work></rdf:RDF></metadata><defs
     id="defs6" /><g
     transform="matrix(1.3333333,0,0,-1.3333333,0,55.973333)"
     id="g10"><g
       transform="scale(0.1)"
       id="g12"><path
         id="path14"
         style="fill:#999999;fill-opacity:1;fill-rule:nonzero;stroke:none"
         d="m 6.46484,4.79688 h 268.266 v 268.012 H 6.46484 Z" /><path
         id="path16"
         style="fill:none;stroke:#ffffff;stroke-width:4;stroke-linecap:butt;stroke-linejoin:miter;stroke-miterlimit:4;stroke-dasharray:none;stroke-opacity:1"
         d="m 6.46484,4.79688 h 268.266 v 268.012 H 6.46484 Z" /><path
         id="path18"
         style="fill:#999999;fill-opacity:1;fill-rule:nonzero;stroke:none"
         d="M 308.613,38.3438 V 306.363 L 274.73,272.809 V 4.79688 l 33.883,33.54692" /><path
         id="path20"
         style="fill:none;stroke:#ffffff;stroke-width:4;stroke-linecap:butt;stroke-linejoin:miter;stroke-miterlimit:4;stroke-dasharray:none;stroke-opacity:1"
         d="M 308.613,38.3438 V 306.363 L 274.73,272.809 V 4.79688 Z" /><path
         id="path22"
         style="fill:#999999;fill-opacity:1;fill-rule:nonzero;stroke:none"
         d="M 55.5156,415.016 6.46484,381.461 H 274.73 l 33.883,33.555 H 55.5156" /><path
         id="path24"
         style="fill:none;stroke:#ffffff;stroke-width:4;stroke-linecap:butt;stroke-linejoin:miter;stroke-miterlimit:4;stroke-dasharray:none;stroke-opacity:1"
         d="M 55.5156,415.016 6.46484,381.461 H 274.73 l 33.883,33.555 z" /><path
         id="path26"
         style="fill:#999999;fill-opacity:1;fill-rule:nonzero;stroke:none"
         d="m 6.46484,272.809 h 268.266 V 381.461 H 6.46484 Z" /><path
         id="path28"
         style="fill:none;stroke:#ffffff;stroke-width:4;stroke-linecap:butt;stroke-linejoin:miter;stroke-miterlimit:4;stroke-dasharray:none;stroke-opacity:1"
         d="m 6.46484,272.809 h 268.266 V 381.461 H 6.46484 Z" /><path
         id="path30"
         style="fill:#999999;fill-opacity:1;fill-rule:nonzero;stroke:none"
         d="M 308.613,306.363 V 415.016 L 274.73,381.461 V 272.809 l 33.883,33.554" /><path
         id="path32"
         style="fill:none;stroke:#ffffff;stroke-width:4;stroke-linecap:butt;stroke-linejoin:miter;stroke-miterlimit:4;stroke-dasharray:none;stroke-opacity:1"
         d="M 308.613,306.363 V 415.016 L 274.73,381.461 V 272.809 Z" /><path
         id="path34"
         style="fill:#999999;fill-opacity:1;fill-rule:nonzero;stroke:none"
         d="M 274.73,272.809 H 6.46484" /><path
         id="path36"
         style="fill:none;stroke:#ffffff;stroke-width:4;stroke-linecap:butt;stroke-linejoin:miter;stroke-miterlimit:4;stroke-dasharray:none;stroke-opacity:1"
         d="M 274.73,272.809 H 6.46484" /><path
         id="path38"
         style="fill:#999999;fill-opacity:1;fill-rule:nonzero;stroke:none"
         d="m 274.73,272.809 33.883,33.554" /><path
         id="path40"
         style="fill:none;stroke:#ffffff;stroke-width:4;stroke-linecap:butt;stroke-linejoin:miter;stroke-miterlimit:4;stroke-dasharray:none;stroke-opacity:1"
         d="m 274.73,272.809 33.883,33.554" /><path
         id="path42"
         style="fill:#ffffff;fill-opacity:1;fill-rule:nonzero;stroke:none"
         d="m 50.2383,344.348 h 43.2695 v 22.5195 H 50.2383 Z" /><path
         id="path44"
         style="fill:#ffffff;fill-opacity:1;fill-rule:nonzero;stroke:none"
         d="m 192.398,344.348 h 43.2656 v 22.5195 H 192.398 Z" /><path
         id="path46"
         style="fill:#ffffff;fill-opacity:1;fill-rule:nonzero;stroke:none"
         d="m 50.2383,288.047 h 43.2695 v 22.5195 H 50.2383 Z" /><path
         id="path48"
         style="fill:#ffffff;fill-opacity:1;fill-rule:nonzero;stroke:none"
         d="m 192.398,288.047 h 43.2656 v 22.5195 H 192.398 Z" /><path
         id="path50"
         style="fill:#999999;fill-opacity:1;fill-rule:nonzero;stroke:none"
         d="M 79.5977,355.605 H 212.484" /><path
         id="path52"
         style="fill:none;stroke:#ffffff;stroke-width:4;stroke-linecap:butt;stroke-linejoin:miter;stroke-miterlimit:4;stroke-dasharray:none;stroke-opacity:1"
         d="M 79.5977,355.605 H 212.484" /><path
         id="path54"
         style="fill:#999999;fill-opacity:1;fill-rule:nonzero;stroke:none"
         d="M 79.5977,299.309 H 212.484" /><path
         id="path56"
         style="fill:none;stroke:#ffffff;stroke-width:4;stroke-linecap:butt;stroke-linejoin:miter;stroke-miterlimit:4;stroke-dasharray:none;stroke-opacity:1"
         d="M 79.5977,299.309 H 212.484" /><path
         id="path58"
         style="fill:#999999;fill-opacity:1;fill-rule:nonzero;stroke:none"
         d="m 71.875,299.309 140.609,56.296" /><path
         id="path60"
         style="fill:none;stroke:#ffffff;stroke-width:4;stroke-linecap:butt;stroke-linejoin:miter;stroke-miterlimit:4;stroke-dasharray:none;stroke-opacity:1"
         d="m 71.875,299.309 140.609,56.296" /><path
         id="path62"
         style="fill:#999999;fill-opacity:1;fill-rule:nonzero;stroke:none"
         d="M 71.875,355.605 212.484,299.309" /><path
         id="path64"
         style="fill:none;stroke:#ffffff;stroke-width:4;stroke-linecap:butt;stroke-linejoin:miter;stroke-miterlimit:4;stroke-dasharray:none;stroke-opacity:1"
         d="M 71.875,355.605 212.484,299.309" /><path
         id="path66"
         style="fill:#ffffff;fill-opacity:1;fill-rule:nonzero;stroke:none"
         d="m 146.406,177.773 v 57.989 h 9.84 l -14.519,21.89 -14.516,-21.89 h 9.836 v -57.989 h 9.359" /><path
         id="path68"
         style="fill:#ffffff;fill-opacity:1;fill-rule:nonzero;stroke:none"
         d="m 116.82,169.395 -41.0036,41.007 6.957,6.957 -25.7421,5.211 5.2109,-25.746 6.957,6.961 40.9998,-41.008 6.621,6.618" /><path
         id="path70"
         style="fill:#ffffff;fill-opacity:1;fill-rule:nonzero;stroke:none"
         d="M 101.824,142.555 H 43.832 v 9.832 L 21.9492,137.871 43.832,123.355 v 9.84 h 57.992 v 9.36" /><path
         id="path72"
         style="fill:#ffffff;fill-opacity:1;fill-rule:nonzero;stroke:none"
         d="m 110.199,112.969 -40.9998,-41.0042 -6.957,6.9532 -5.2109,-25.7422 25.7421,5.2148 -6.957,6.9532 41.0036,41.0042 -6.621,6.621" /><path
         id="path74"
         style="fill:#ffffff;fill-opacity:1;fill-rule:nonzero;stroke:none"
         d="M 137.047,97.9688 V 39.9805 h -9.836 l 14.516,-21.8907 14.519,21.8907 h -9.84 v 57.9883 h -9.359" /><path
         id="path76"
         style="fill:#ffffff;fill-opacity:1;fill-rule:nonzero;stroke:none"
         d="m 166.633,106.348 41.004,-41.0042 -6.953,-6.9532 25.742,-5.2148 -5.215,25.7422 -6.953,-6.9532 -41.012,41.0042 -6.613,-6.621" /><path
         id="path78"
         style="fill:#ffffff;fill-opacity:1;fill-rule:nonzero;stroke:none"
         d="m 181.633,133.195 h 57.984 v -9.84 l 21.887,14.516 -21.887,14.516 v -9.832 h -57.984 v -9.36" /><path
         id="path80"
         style="fill:#ffffff;fill-opacity:1;fill-rule:nonzero;stroke:none"
         d="m 173.246,162.777 41.012,41.008 6.953,-6.961 5.215,25.746 -25.742,-5.211 6.953,-6.957 -41.004,-41.007 6.613,-6.618" /><path
         id="path82"
         style="fill:#ffffff;fill-opacity:1;fill-rule:nonzero;stroke:none"
         d="m 177.207,89.2734 c 27.164,19.0236 33.766,56.4606 14.746,83.6216 -19.023,27.164 -56.465,33.765 -83.629,14.746 C 81.1641,168.617 74.5664,131.176 93.5859,104.02 112.602,76.8516 150.043,70.2539 177.207,89.2734" /></g></g></svg>