<?xml version="1.0" encoding="UTF-8" standalone="no"?>
<svg
   xmlns:dc="http://purl.org/dc/elements/1.1/"
   xmlns:cc="http://creativecommons.org/ns#"
   xmlns:rdf="http://www.w3.org/1999/02/22-rdf-syntax-ns#"
   xmlns:svg="http://www.w3.org/2000/svg"
   xmlns="http://www.w3.org/2000/svg"
   viewBox="0 0 41.506668 55.413334"
   height="55.413334"
   width="41.506668"
   xml:space="preserve"
   id="svg2"
   version="1.1"><metadata
     id="metadata8"><rdf:RDF><cc:Work
         rdf:about=""><dc:format>image/svg+xml</dc:format><dc:type
           rdf:resource="http://purl.org/dc/dcmitype/StillImage" /></cc:Work></rdf:RDF></metadata><defs
     id="defs6" /><g
     transform="matrix(1.3333333,0,0,-1.3333333,0,55.413333)"
     id="g10"><g
       transform="scale(0.1)"
       id="g12"><path
         id="path14"
         style="fill:#999999;fill-opacity:1;fill-rule:nonzero;stroke:none"
         d="M 306.301,53.4102 V 410.906 L 254.957,362.16 V 4.66016 l 51.344,48.75004" /><path
         id="path16"
         style="fill:none;stroke:#ffffff;stroke-width:4;stroke-linecap:butt;stroke-linejoin:miter;stroke-miterlimit:4;stroke-dasharray:none;stroke-opacity:1"
         d="M 306.301,53.4102 V 410.906 L 254.957,362.16 V 4.66016 Z" /><path
         id="path18"
         style="fill:#999999;fill-opacity:1;fill-rule:nonzero;stroke:none"
         d="M 306.301,410.906 254.957,362.16 H 5.96094 L 70.4648,410.906 H 306.301" /><path
         id="path20"
         style="fill:none;stroke:#ffffff;stroke-width:4;stroke-linecap:butt;stroke-linejoin:miter;stroke-miterlimit:4;stroke-dasharray:none;stroke-opacity:1"
         d="M 306.301,410.906 254.957,362.16 H 5.96094 l 64.50386,48.746 z" /><path
         id="path22"
         style="fill:#999999;fill-opacity:1;fill-rule:nonzero;stroke:none"
         d="m 5.96094,115.91 h 248.996 V 362.16 H 5.96094 Z" /><path
         id="path24"
         style="fill:none;stroke:#ffffff;stroke-width:4;stroke-linecap:butt;stroke-linejoin:miter;stroke-miterlimit:4;stroke-dasharray:none;stroke-opacity:1"
         d="m 5.96094,115.91 h 248.996 V 362.16 H 5.96094 Z" /><path
         id="path26"
         style="fill:#999999;fill-opacity:1;fill-rule:nonzero;stroke:none"
         d="m 5.96094,4.66016 h 248.996 v 108.75 H 5.96094 Z" /><path
         id="path28"
         style="fill:none;stroke:#ffffff;stroke-width:4;stroke-linecap:butt;stroke-linejoin:miter;stroke-miterlimit:4;stroke-dasharray:none;stroke-opacity:1"
         d="m 5.96094,4.66016 h 248.996 v 108.75 H 5.96094 Z" /><path
         id="path30"
         style="fill:#ffffff;fill-opacity:1;fill-rule:nonzero;stroke:none"
         d="m 108.258,268.223 -37.883,37.89 6.4258,6.426 -23.7813,4.816 4.8125,-23.781 6.4258,6.426 37.8872,-37.891 6.113,6.114" /><path
         id="path32"
         style="fill:#ffffff;fill-opacity:1;fill-rule:nonzero;stroke:none"
         d="M 94.4023,243.43 H 40.8242 v 9.09 L 20.6055,239.102 40.8242,225.695 v 9.09 h 53.5781 v 8.645" /><path
         id="path34"
         style="fill:#ffffff;fill-opacity:1;fill-rule:nonzero;stroke:none"
         d="m 102.145,216.094 -37.8872,-37.891 -6.4258,6.426 -4.8125,-23.777 23.7813,4.812 -6.4258,6.426 37.883,37.89 -6.113,6.114" /><path
         id="path36"
         style="fill:#ffffff;fill-opacity:1;fill-rule:nonzero;stroke:none"
         d="m 126.941,202.246 v -53.582 h -9.086 l 13.411,-20.226 13.414,20.226 h -9.09 v 53.582 h -8.649" /><path
         id="path38"
         style="fill:#ffffff;fill-opacity:1;fill-rule:nonzero;stroke:none"
         d="m 126.941,274.426 v 53.582 h -9.086 l 13.411,20.215 13.414,-20.215 h -9.09 v -53.582 h -8.649" /><path
         id="path40"
         style="fill:#ffffff;fill-opacity:1;fill-rule:nonzero;stroke:none"
         d="m 154.277,209.98 37.879,-37.89 -6.418,-6.426 23.778,-4.812 -4.813,23.777 -6.426,-6.426 -37.886,37.891 -6.114,-6.114" /><path
         id="path42"
         style="fill:#ffffff;fill-opacity:1;fill-rule:nonzero;stroke:none"
         d="m 168.129,234.785 h 53.582 v -9.09 l 20.223,13.407 -20.223,13.418 v -9.09 h -53.582 v -8.645" /><path
         id="path44"
         style="fill:#ffffff;fill-opacity:1;fill-rule:nonzero;stroke:none"
         d="m 160.391,262.109 37.886,37.891 6.426,-6.426 4.813,23.781 -23.778,-4.816 6.426,-6.426 -37.887,-37.89 6.114,-6.114" /><path
         id="path46"
         style="fill:#ffffff;fill-opacity:1;fill-rule:nonzero;stroke:none"
         d="m 164.148,193.75 c 25.282,17.695 31.43,52.539 13.723,77.824 C 160.172,296.855 125.328,303 100.051,285.293 74.7695,267.598 68.625,232.754 86.3281,207.473 104.027,182.188 138.871,176.055 164.148,193.75" /><path
         id="path48"
         style="fill:none;stroke:#999999;stroke-width:4;stroke-linecap:butt;stroke-linejoin:miter;stroke-miterlimit:4;stroke-dasharray:none;stroke-opacity:1"
         d="m 164.148,193.75 c 25.282,17.695 31.43,52.539 13.723,77.824 C 160.172,296.855 125.328,303 100.051,285.293 74.7695,267.598 68.625,232.754 86.3281,207.473 104.027,182.188 138.871,176.055 164.148,193.75 Z" /><path
         id="path50"
         style="fill:#ffffff;fill-opacity:1;fill-rule:nonzero;stroke:none"
         d="m 133.645,54.9609 h 53.574 v -9.082 l 20.222,13.3984 -20.222,13.418 v -9.082 h -53.574 v -8.6524" /><path
         id="path52"
         style="fill:#ffffff;fill-opacity:1;fill-rule:nonzero;stroke:none"
         d="m 132.402,69.8438 50.344,18.3203 3.113,-8.5352 14.414,19.5117 -23.593,5.6834 3.117,-8.5349 -50.356,-18.3203 2.961,-8.125" /><path
         id="path54"
         style="fill:#ffffff;fill-opacity:1;fill-rule:nonzero;stroke:none"
         d="m 132.402,49.0625 50.344,-18.3203 3.113,8.5351 14.414,-19.5117 -23.593,-5.6836 3.117,8.5352 -50.356,18.3203 2.961,8.125" /><path
         id="path56"
         style="fill:#ffffff;fill-opacity:1;fill-rule:nonzero;stroke:none"
         d="m 50.5664,54.9609 h 51.6526 v -9.082 l 20.222,13.3984 -20.222,13.418 v -9.082 H 50.5664 v -8.6524" /></g></g></svg>