<?xml version="1.0" encoding="UTF-8" standalone="no"?>
<svg
   xmlns:dc="http://purl.org/dc/elements/1.1/"
   xmlns:cc="http://creativecommons.org/ns#"
   xmlns:rdf="http://www.w3.org/1999/02/22-rdf-syntax-ns#"
   xmlns:svg="http://www.w3.org/2000/svg"
   xmlns="http://www.w3.org/2000/svg"
   viewBox="0 0 56.693333 42.333332"
   height="42.333332"
   width="56.693333"
   xml:space="preserve"
   id="svg2"
   version="1.1"><metadata
     id="metadata8"><rdf:RDF><cc:Work
         rdf:about=""><dc:format>image/svg+xml</dc:format><dc:type
           rdf:resource="http://purl.org/dc/dcmitype/StillImage" /></cc:Work></rdf:RDF></metadata><defs
     id="defs6" /><g
     transform="matrix(1.3333333,0,0,-1.3333333,0,42.333333)"
     id="g10"><g
       transform="scale(0.1)"
       id="g12"><path
         id="path14"
         style="fill:#999999;fill-opacity:1;fill-rule:nonzero;stroke:none"
         d="M 379.508,7.96094 H 111.496 V 276.23 H 379.508 V 7.96094" /><path
         id="path16"
         style="fill:none;stroke:#ffffff;stroke-width:4;stroke-linecap:butt;stroke-linejoin:miter;stroke-miterlimit:4;stroke-dasharray:none;stroke-opacity:1"
         d="M 379.508,7.96094 H 111.496 V 276.23 h 268.012 z" /><path
         id="path18"
         style="fill:#999999;fill-opacity:1;fill-rule:nonzero;stroke:none"
         d="M 142.832,310.879 H 410.855 L 377.301,276.992 H 109.289 l 33.543,33.887" /><path
         id="path20"
         style="fill:none;stroke:#ffffff;stroke-width:4;stroke-linecap:butt;stroke-linejoin:miter;stroke-miterlimit:4;stroke-dasharray:none;stroke-opacity:1"
         d="M 142.832,310.879 H 410.855 L 377.301,276.992 H 109.289 Z" /><path
         id="path22"
         style="fill:#999999;fill-opacity:1;fill-rule:nonzero;stroke:none"
         d="M 412.008,50.5664 378.453,5.98438 V 278.73 l 33.555,33.875 V 50.5664" /><path
         id="path24"
         style="fill:none;stroke:#ffffff;stroke-width:4;stroke-linecap:butt;stroke-linejoin:miter;stroke-miterlimit:4;stroke-dasharray:none;stroke-opacity:1"
         d="M 412.008,50.5664 378.453,5.98438 V 278.73 l 33.555,33.875 z" /><path
         id="path26"
         style="fill:#999999;fill-opacity:1;fill-rule:nonzero;stroke:none"
         d="M 111.496,7.96094 H 2.84375 V 276.23 H 111.496 V 7.96094" /><path
         id="path28"
         style="fill:none;stroke:#ffffff;stroke-width:4;stroke-linecap:butt;stroke-linejoin:miter;stroke-miterlimit:4;stroke-dasharray:none;stroke-opacity:1"
         d="M 111.496,7.96094 H 2.84375 V 276.23 H 111.496 Z" /><path
         id="path30"
         style="fill:#999999;fill-opacity:1;fill-rule:nonzero;stroke:none"
         d="M 38.3516,310.879 H 147.004 L 113.445,276.992 H 4.79688 l 33.55472,33.887" /><path
         id="path32"
         style="fill:none;stroke:#ffffff;stroke-width:4;stroke-linecap:butt;stroke-linejoin:miter;stroke-miterlimit:4;stroke-dasharray:none;stroke-opacity:1"
         d="M 38.3516,310.879 H 147.004 L 113.445,276.992 H 4.79688 Z" /><path
         id="path34"
         style="fill:#999999;fill-opacity:1;fill-rule:nonzero;stroke:none"
         d="M 111.496,276.23 V 7.96094" /><path
         id="path36"
         style="fill:none;stroke:#ffffff;stroke-width:4;stroke-linecap:butt;stroke-linejoin:miter;stroke-miterlimit:4;stroke-dasharray:none;stroke-opacity:1"
         d="M 111.496,276.23 V 7.96094" /><path
         id="path38"
         style="fill:#ffffff;fill-opacity:1;fill-rule:nonzero;stroke:none"
         d="m 186.477,94.6563 c 4.746,0 8.601,3.8515 8.601,8.6057 0,4.758 -3.855,8.601 -8.601,8.601 -4.762,0 -8.618,-3.843 -8.618,-8.601 0,-4.7542 3.856,-8.6057 8.618,-8.6057" /><path
         id="path40"
         style="fill:none;stroke:#000000;stroke-width:4;stroke-linecap:butt;stroke-linejoin:miter;stroke-miterlimit:4;stroke-dasharray:none;stroke-opacity:1"
         d="m 186.477,94.6563 c 4.746,0 8.601,3.8515 8.601,8.6057 0,4.758 -3.855,8.601 -8.601,8.601 -4.762,0 -8.618,-3.843 -8.618,-8.601 0,-4.7542 3.856,-8.6057 8.618,-8.6057 z" /><path
         id="path42"
         style="fill:#ffffff;fill-opacity:1;fill-rule:nonzero;stroke:none"
         d="m 179.105,112.441 16.817,-16.4254 47.512,48.6324 -16.817,16.415 -47.512,-48.622" /><path
         id="path44"
         style="fill:none;stroke:#000000;stroke-width:4;stroke-linecap:butt;stroke-linejoin:miter;stroke-miterlimit:4;stroke-dasharray:none;stroke-opacity:1"
         d="m 179.105,112.441 16.817,-16.4254 47.512,48.6324 -16.817,16.415 z" /><path
         id="path46"
         style="fill:#ffffff;fill-opacity:1;fill-rule:nonzero;stroke:none"
         d="m 219.895,196.895 c 0,-35.555 28.929,-64.473 64.476,-64.473 35.567,0 64.492,28.918 64.492,64.473 0,35.546 -28.925,64.472 -64.492,64.472 -35.547,0 -64.476,-28.926 -64.476,-64.472 z m 9.015,0 c 0,30.585 24.895,55.468 55.461,55.468 30.586,0 55.469,-24.883 55.469,-55.468 0,-30.579 -24.883,-55.45 -55.469,-55.45 -30.566,0 -55.461,24.871 -55.461,55.45" /><path
         id="path48"
         style="fill:none;stroke:#000000;stroke-width:4;stroke-linecap:butt;stroke-linejoin:miter;stroke-miterlimit:4;stroke-dasharray:none;stroke-opacity:1"
         d="m 219.895,196.895 c 0,-35.555 28.929,-64.473 64.476,-64.473 35.567,0 64.492,28.918 64.492,64.473 0,35.546 -28.925,64.472 -64.492,64.472 -35.547,0 -64.476,-28.926 -64.476,-64.472 z m 9.015,0 c 0,30.585 24.895,55.468 55.461,55.468 30.586,0 55.469,-24.883 55.469,-55.468 0,-30.579 -24.883,-55.45 -55.469,-55.45 -30.566,0 -55.461,24.871 -55.461,55.45 z" /><path
         id="path50"
         style="fill:#ffffff;fill-opacity:1;fill-rule:nonzero;stroke:none"
         d="m 212.34,193.184 c 0,-35.567 28.926,-64.493 64.48,-64.493 35.559,0 64.485,28.926 64.485,64.493 0,35.546 -28.926,64.472 -64.485,64.472 -35.554,0 -64.48,-28.926 -64.48,-64.472 z m 9.023,0 c 0,30.578 24.883,55.461 55.457,55.461 30.598,0 55.461,-24.883 55.461,-55.461 0,-30.594 -24.863,-55.477 -55.461,-55.477 -30.574,0 -55.457,24.883 -55.457,55.477" /><path
         id="path52"
         style="fill:none;stroke:#000000;stroke-width:4;stroke-linecap:butt;stroke-linejoin:miter;stroke-miterlimit:4;stroke-dasharray:none;stroke-opacity:1"
         d="m 212.34,193.184 c 0,-35.567 28.926,-64.493 64.48,-64.493 35.559,0 64.485,28.926 64.485,64.493 0,35.546 -28.926,64.472 -64.485,64.472 -35.554,0 -64.48,-28.926 -64.48,-64.472 z m 9.023,0 c 0,30.578 24.883,55.461 55.457,55.461 30.598,0 55.461,-24.883 55.461,-55.461 0,-30.594 -24.863,-55.477 -55.461,-55.477 -30.574,0 -55.457,24.883 -55.457,55.477 z" /><path
         id="path54"
         style="fill:#ffffff;fill-opacity:1;fill-rule:nonzero;stroke:none"
         d="m 53.7695,206.973 -0.9765,-1.36 c -6.7305,-10.175 -12.2617,-15.261 -16.5703,-15.261 -4.9727,0 -9.8399,3.964 -14.6407,11.855 0.6446,-0.027 1.125,-0.066 1.4219,-0.066 5.6602,0 11.9609,4.382 18.9102,13.14 l 1.75,2.246 -2.2735,2.473 c -6.4258,6.75 -9.6328,12.473 -9.6328,17.195 0,3.84 3.5117,8.391 10.5469,13.625 0.9883,-6.718 3.957,-13.242 8.8789,-19.621 l 1.9375,-2.469 1.5586,2.024 c 7.1992,9.266 13.7383,13.894 19.6133,13.894 4.5781,0 8.0508,-3.515 10.4297,-10.527 -0.6993,0.067 -1.211,0.129 -1.5547,0.129 -2.0313,0 -4.9258,-1.391 -8.6797,-4.184 -3.75,-2.781 -6.9297,-5.925 -9.5117,-9.421 L 62.9648,218 64.9023,216.172 C 71.8594,209.441 79.082,206.074 86.6016,206.074 82.582,197.91 78.375,193.828 73.9766,193.828 70,193.828 64.2578,197.297 56.75,204.27 l -2.9805,2.703" /><path
         id="path56"
         style="fill:#ffffff;fill-opacity:1;fill-rule:nonzero;stroke:none"
         d="M 84.6523,106.25 C 78.0898,99.2578 70.8906,90.1055 63.0508,78.8164 55.2188,67.5195 49.4023,57.8828 45.6055,49.8945 l -4.7969,-3.2539 c -3.9609,-2.7461 -6.6719,-4.8242 -8.0977,-6.1914 -0.5586,2.0703 -1.7812,5.4102 -3.6953,10.0313 l -1.7968,4.1406 c -2.5977,6.0937 -5,10.5742 -7.2227,13.4766 -2.2266,2.9101 -4.7227,4.7851 -7.4844,5.7031 4.6602,5.0156 8.9571,7.5664 12.8946,7.5664 3.2773,0 6.9414,-4.5508 11.0117,-13.6328 l 2,-4.5703 c 7.6406,12.8515 19.5117,27.2187 35.6172,43.0859 l 4.4023,4.188 12.2227,9.699 c 3.0742,2.082 5.9765,3.84 8.7031,5.324 l 2.3947,-3.352 c -2.301,-1.699 -4.8439,-3.769 -7.6252,-6.179 l -9.4805,-9.68" /><path
         id="path58"
         style="fill:#087bbb;fill-opacity:1;fill-rule:nonzero;stroke:none"
         d="M 110.566,151.992 H 1.91406" /><path
         id="path60"
         style="fill:none;stroke:#ffffff;stroke-width:4;stroke-linecap:butt;stroke-linejoin:miter;stroke-miterlimit:4;stroke-dasharray:none;stroke-opacity:1"
         d="M 110.566,151.992 H 1.91406" /><path
         id="path62"
         style="fill:none;stroke:#ffffff;stroke-width:4;stroke-linecap:round;stroke-linejoin:round;stroke-miterlimit:4;stroke-dasharray:none;stroke-opacity:1"
         d="M 377.594,82.1875 H 111.086" /><path
         id="path64"
         style="fill:none;stroke:#ffffff;stroke-width:4;stroke-linecap:round;stroke-linejoin:round;stroke-miterlimit:4;stroke-dasharray:none;stroke-opacity:1"
         d="M 377.594,45.2813 H 111.086" /><path
         id="path66"
         style="fill:none;stroke:#ffffff;stroke-width:4;stroke-linecap:round;stroke-linejoin:round;stroke-miterlimit:4;stroke-dasharray:none;stroke-opacity:1"
         d="M 421.773,101.973 379.77,44.7188" /><path
         id="path68"
         style="fill:none;stroke:#ffffff;stroke-width:4;stroke-linecap:round;stroke-linejoin:round;stroke-miterlimit:4;stroke-dasharray:none;stroke-opacity:1"
         d="M 190.016,43.4297 V 9.91406" /><path
         id="path70"
         style="fill:none;stroke:#ffffff;stroke-width:4;stroke-linecap:round;stroke-linejoin:round;stroke-miterlimit:4;stroke-dasharray:none;stroke-opacity:1"
         d="M 293.082,43.4297 V 9.91406" /><path
         id="path72"
         style="fill:none;stroke:#ffffff;stroke-width:4;stroke-linecap:round;stroke-linejoin:round;stroke-miterlimit:4;stroke-dasharray:none;stroke-opacity:1"
         d="M 243.617,80.5586 V 47.043" /><path
         id="path74"
         style="fill:none;stroke:#ffffff;stroke-width:4;stroke-linecap:round;stroke-linejoin:round;stroke-miterlimit:4;stroke-dasharray:none;stroke-opacity:1"
         d="M 140.566,80.5586 V 47.043" /><path
         id="path76"
         style="fill:none;stroke:#ffffff;stroke-width:4;stroke-linecap:round;stroke-linejoin:round;stroke-miterlimit:4;stroke-dasharray:none;stroke-opacity:1"
         d="M 346.684,80.5586 V 47.043" /><path
         id="path78"
         style="fill:#999999;fill-opacity:1;fill-rule:nonzero;stroke:none"
         d="m 378.004,81.457 45.644,61.316" /><path
         id="path80"
         style="fill:none;stroke:#ffffff;stroke-width:4;stroke-linecap:butt;stroke-linejoin:miter;stroke-miterlimit:4;stroke-dasharray:none;stroke-opacity:1"
         d="m 378.004,81.457 45.644,61.316" /><path
         id="path82"
         style="fill:none;stroke:#ffffff;stroke-width:4;stroke-linecap:round;stroke-linejoin:round;stroke-miterlimit:4;stroke-dasharray:none;stroke-opacity:1"
         d="M 393.793,61.1641 V 21.5938" /><path
         id="path84"
         style="fill:none;stroke:#ffffff;stroke-width:4;stroke-linecap:round;stroke-linejoin:round;stroke-miterlimit:4;stroke-dasharray:none;stroke-opacity:1"
         d="M 400.855,110.703 V 71.1328" /></g></g></svg>