<?xml version="1.0" encoding="UTF-8" standalone="no"?>
<svg
   xmlns:dc="http://purl.org/dc/elements/1.1/"
   xmlns:cc="http://creativecommons.org/ns#"
   xmlns:rdf="http://www.w3.org/1999/02/22-rdf-syntax-ns#"
   xmlns:svg="http://www.w3.org/2000/svg"
   xmlns="http://www.w3.org/2000/svg"
   viewBox="0 0 59.080002 31.559999"
   height="31.559999"
   width="59.080002"
   xml:space="preserve"
   id="svg2"
   version="1.1"><metadata
     id="metadata8"><rdf:RDF><cc:Work
         rdf:about=""><dc:format>image/svg+xml</dc:format><dc:type
           rdf:resource="http://purl.org/dc/dcmitype/StillImage" /></cc:Work></rdf:RDF></metadata><defs
     id="defs6" /><g
     transform="matrix(1.3333333,0,0,-1.3333333,0,31.56)"
     id="g10"><g
       transform="scale(0.1)"
       id="g12"><path
         id="path14"
         style="fill:#999999;fill-opacity:1;fill-rule:nonzero;stroke:none"
         d="m 6.09766,5.20313 h 357.324 v 159.34 H 6.09766 Z" /><path
         id="path16"
         style="fill:none;stroke:#ffffff;stroke-width:4;stroke-linecap:butt;stroke-linejoin:miter;stroke-miterlimit:4;stroke-dasharray:none;stroke-opacity:1"
         d="m 6.09766,5.20313 h 357.324 v 159.34 H 6.09766 Z" /><path
         id="path18"
         style="fill:#999999;fill-opacity:1;fill-rule:nonzero;stroke:none"
         d="M 363.422,164.543 H 5.92188 l 88.37892,67.379 343.6522,0.254 -74.531,-67.633" /><path
         id="path20"
         style="fill:none;stroke:#ffffff;stroke-width:4;stroke-linecap:butt;stroke-linejoin:miter;stroke-miterlimit:4;stroke-dasharray:none;stroke-opacity:1"
         d="M 363.422,164.543 H 5.92188 l 88.37892,67.379 343.6522,0.254 z" /><path
         id="path22"
         style="fill:#999999;fill-opacity:1;fill-rule:nonzero;stroke:none"
         d="M 437.953,232.176 436.813,77.1094 363.422,4.77344 V 164.543 l 74.531,67.633" /><path
         id="path24"
         style="fill:none;stroke:#ffffff;stroke-width:4;stroke-linecap:butt;stroke-linejoin:miter;stroke-miterlimit:4;stroke-dasharray:none;stroke-opacity:1"
         d="M 437.953,232.176 436.813,77.1094 363.422,4.77344 V 164.543 Z" /><path
         id="path26"
         style="fill:#ffffff;fill-opacity:1;fill-rule:nonzero;stroke:none"
         d="m 194.566,102.852 12.129,0.019 2.813,-2.812 h 9.394 l 10.43,7.625 11.297,0.031 9.641,-10.6837 10.683,0.0273 11.641,10.7224 9.773,0.012 8.43,-9.1602 h 9.687 l 3.614,6.9722 28.25,-17.187 -19.785,-16.6914 -117.95,-0.2149 V 67.6836 L 176.188,67.6445 C 171.586,67.6367 167.613,64.9102 165.758,60.957 157.035,47.1875 141.742,38.0156 124.313,37.9961 97.125,37.9492 75.0938,60.0977 75.0938,87.4688 c 0,27.3362 22.0312,49.5512 49.2192,49.6092 17.214,0.039 32.343,-8.855 41.121,-22.312 1.699,-4.278 5.871,-7.297 10.734,-7.297 l 18.398,0.019 v -4.636" /><path
         id="path28"
         style="fill:none;stroke:#999999;stroke-width:5.12400007;stroke-linecap:butt;stroke-linejoin:round;stroke-miterlimit:4;stroke-dasharray:none;stroke-opacity:1"
         d="M 321.352,79.7461 194.613,79.5508 c -4.988,-0.0195 -11.941,-1.3399 -18.367,-4.0625 6.426,-2.6758 13.379,-3.9766 18.367,-3.9766" /><path
         id="path30"
         style="fill:none;stroke:#999999;stroke-width:5.12400007;stroke-linecap:butt;stroke-linejoin:round;stroke-miterlimit:4;stroke-dasharray:none;stroke-opacity:1"
         d="M 326.832,91.2969 200.074,91.1133 c -5.636,-0.0313 -17.402,1.1015 -20.09,2.1875" /><path
         id="path32"
         style="fill:#ffffff;fill-opacity:1;fill-rule:nonzero;stroke:none"
         d="m 124.313,43.3203 c 24.265,0.0274 43.925,19.8711 43.925,44.2969 0,24.4338 -19.66,44.1798 -43.925,44.1488 -24.274,-0.059 -43.9419,-19.864 -43.9419,-44.2855 0,-24.4336 19.6679,-44.1992 43.9419,-44.1602" /><path
         id="path34"
         style="fill:none;stroke:#999999;stroke-width:3.66000009;stroke-linecap:butt;stroke-linejoin:round;stroke-miterlimit:4;stroke-dasharray:none;stroke-opacity:1"
         d="m 124.313,43.3203 c 24.265,0.0274 43.925,19.8711 43.925,44.2969 0,24.4338 -19.66,44.1798 -43.925,44.1488 -24.274,-0.059 -43.9419,-19.864 -43.9419,-44.2855 0,-24.4336 19.6679,-44.1992 43.9419,-44.1602 z" /><path
         id="path36"
         style="fill:#ffffff;fill-opacity:1;fill-rule:nonzero;stroke:none"
         d="m 99.1445,75.8984 c 6.3475,0 11.5355,5.1954 11.5355,11.6094 0,6.4102 -5.188,11.5938 -11.5355,11.5938 C 92.7617,99.082 87.6133,93.875 87.6133,87.4805 c 0,-6.4063 5.1484,-11.5821 11.5312,-11.5821" /><path
         id="path38"
         style="fill:none;stroke:#999999;stroke-width:5.12400007;stroke-linecap:butt;stroke-linejoin:round;stroke-miterlimit:4;stroke-dasharray:none;stroke-opacity:1"
         d="m 99.1445,75.8984 c 6.3475,0 11.5355,5.1954 11.5355,11.6094 0,6.4102 -5.188,11.5938 -11.5355,11.5938 C 92.7617,99.082 87.6133,93.875 87.6133,87.4805 c 0,-6.4063 5.1484,-11.5821 11.5312,-11.5821 z" /></g></g></svg>