<?xml version="1.0" encoding="UTF-8" standalone="no"?>
<svg
   xmlns:dc="http://purl.org/dc/elements/1.1/"
   xmlns:cc="http://creativecommons.org/ns#"
   xmlns:rdf="http://www.w3.org/1999/02/22-rdf-syntax-ns#"
   xmlns:svg="http://www.w3.org/2000/svg"
   xmlns="http://www.w3.org/2000/svg"
   viewBox="0 0 49.546665 35.639999"
   height="35.639999"
   width="49.546665"
   xml:space="preserve"
   id="svg2"
   version="1.1"><metadata
     id="metadata8"><rdf:RDF><cc:Work
         rdf:about=""><dc:format>image/svg+xml</dc:format><dc:type
           rdf:resource="http://purl.org/dc/dcmitype/StillImage" /></cc:Work></rdf:RDF></metadata><defs
     id="defs6" /><g
     transform="matrix(1.3333333,0,0,-1.3333333,0,35.64)"
     id="g10"><g
       transform="scale(0.1)"
       id="g12"><path
         id="path14"
         style="fill:#999999;fill-opacity:1;fill-rule:nonzero;stroke:none"
         d="m 4.82422,4.83594 h 336.516 v 232.246 H 4.82422 Z" /><path
         id="path16"
         style="fill:none;stroke:#ffffff;stroke-width:4;stroke-linecap:butt;stroke-linejoin:miter;stroke-miterlimit:4;stroke-dasharray:none;stroke-opacity:1"
         d="m 4.82422,4.83594 h 336.516 v 232.246 H 4.82422 Z" /><path
         id="path18"
         style="fill:#999999;fill-opacity:1;fill-rule:nonzero;stroke:none"
         d="M 4.82422,237.082 30.2344,262.48 H 366.738 L 341.34,237.082 H 4.82422" /><path
         id="path20"
         style="fill:none;stroke:#ffffff;stroke-width:4;stroke-linecap:butt;stroke-linejoin:miter;stroke-miterlimit:4;stroke-dasharray:none;stroke-opacity:1"
         d="M 4.82422,237.082 30.2344,262.48 H 366.738 L 341.34,237.082 Z" /><path
         id="path22"
         style="fill:#999999;fill-opacity:1;fill-rule:nonzero;stroke:none"
         d="M 341.34,4.83594 366.738,30.2344 V 262.48 L 341.34,237.082 V 4.83594" /><path
         id="path24"
         style="fill:none;stroke:#ffffff;stroke-width:4;stroke-linecap:butt;stroke-linejoin:miter;stroke-miterlimit:4;stroke-dasharray:none;stroke-opacity:1"
         d="M 341.34,4.83594 366.738,30.2344 V 262.48 L 341.34,237.082 Z" /><path
         id="path26"
         style="fill:#ffffff;fill-opacity:1;fill-rule:nonzero;stroke:none"
         d="m 201.523,95.6641 c 7.395,7.5979 9.856,20.2269 9.856,32.8519 0,12.64 -2.461,25.277 -9.856,32.863 l 9.856,17.687 c 9.851,-12.636 17.246,-30.324 14.773,-50.55 0,-20.215 -4.922,-37.8988 -14.773,-50.5277 l -9.856,17.6758" /><path
         id="path28"
         style="fill:#ffffff;fill-opacity:1;fill-rule:nonzero;stroke:none"
         d="m 258.176,83.0391 c 7.383,10.1054 9.851,25.2619 9.851,42.9569 0,15.16 -2.468,32.852 -9.851,42.965 l 9.851,20.215 c 9.844,-17.692 14.778,-40.434 14.778,-63.18 0,-22.734 -4.934,-45.4882 -14.778,-63.1835 l -9.851,20.2266" /><path
         id="path30"
         style="fill:#ffffff;fill-opacity:1;fill-rule:nonzero;stroke:none"
         d="m 142.422,95.6641 c -4.922,7.5979 -9.844,20.2269 -9.844,32.8519 0,12.64 4.922,25.277 9.844,32.863 l -9.844,17.687 c -9.851,-12.636 -14.773,-30.324 -14.773,-50.55 0,-20.215 4.922,-37.8988 14.773,-50.5277 l 9.844,17.6758" /><path
         id="path32"
         style="fill:#ffffff;fill-opacity:1;fill-rule:nonzero;stroke:none"
         d="m 93.1641,83.0391 c -4.9219,10.1054 -9.8438,25.2619 -9.8438,42.9569 0,15.16 4.9219,32.852 9.8438,42.965 l -9.8438,20.215 c -9.8515,-17.692 -14.7851,-40.434 -14.7851,-63.18 0,-22.734 4.9336,-45.4882 14.7851,-63.1835 l 9.8438,20.2266" /><path
         id="path34"
         style="fill:none;stroke:#ffffff;stroke-width:5;stroke-linecap:butt;stroke-linejoin:miter;stroke-miterlimit:1;stroke-dasharray:none;stroke-opacity:1"
         d="M 170.969,120.938 V 45.1367" /><path
         id="path36"
         style="fill:#ffffff;fill-opacity:1;fill-rule:nonzero;stroke:none"
         d="m 176.633,128.652 c 0,-3.437 -2.785,-6.23 -6.223,-6.23 -3.437,0 -6.219,2.793 -6.219,6.23 0,3.438 2.782,6.215 6.219,6.215 3.438,0 6.223,-2.777 6.223,-6.215" /></g></g></svg>